<?xml version="1.0" encoding="UTF-8" standalone="no"?>
<!-- Created with Inkscape (http://www.inkscape.org/) -->

<svg
   xmlns:dc="http://purl.org/dc/elements/1.1/"
   xmlns:cc="http://creativecommons.org/ns#"
   xmlns:rdf="http://www.w3.org/1999/02/22-rdf-syntax-ns#"
   xmlns:svg="http://www.w3.org/2000/svg"
   xmlns="http://www.w3.org/2000/svg"
   xmlns:sodipodi="http://sodipodi.sourceforge.net/DTD/sodipodi-0.dtd"
   xmlns:inkscape="http://www.inkscape.org/namespaces/inkscape"
   width="744.09448819"
   height="1052.3622047"
   id="svg2"
   version="1.1"
   inkscape:version="0.48.3.1 r9886"
   sodipodi:docname="New document 1">
  <defs
     id="defs4">
    <symbol
       id="*Paper_Space0" />
    <symbol
       id="*Paper_Space" />
    <symbol
       id="*Model_Space" />
    <pattern
       id="Hatch"
       x="0"
       y="0"
       patternUnits="userSpaceOnUse"
       width="8"
       height="8">
      <path
         id="path3014"
         d="M8 4 l-4,4"
         stroke-width="0.25"
         stroke="#000000"
         linecap="square" />
      <path
         id="path3016"
         d="M6 2 l-4,4"
         stroke-width="0.25"
         stroke="#000000"
         linecap="square" />
      <path
         id="path3018"
         d="M4 0 l-4,4"
         stroke-width="0.25"
         stroke="#000000"
         linecap="square" />
    </pattern>
    <marker
       orient="auto"
       id="DistanceX"
       style="overflow:visible"
       refX="0.0"
       refY="0.0">
      <path
         id="path3011"
         d="M 3,-3 L -3,3 M 0,-5 L  0,5"
         style="stroke:#000000; stroke-width:0.5" />
    </marker>
  </defs>
  <sodipodi:namedview
     id="base"
     pagecolor="#ffffff"
     bordercolor="#666666"
     borderopacity="1.0"
     inkscape:pageopacity="0.0"
     inkscape:pageshadow="2"
     inkscape:zoom="0.98994949"
     inkscape:cx="368.75529"
     inkscape:cy="660.60298"
     inkscape:document-units="px"
     inkscape:current-layer="layer1"
     showgrid="false"
     inkscape:window-width="1480"
     inkscape:window-height="821"
     inkscape:window-x="65"
     inkscape:window-y="24"
     inkscape:window-maximized="0" />
  <metadata
     id="metadata7">
    <rdf:RDF>
      <cc:Work
         rdf:about="">
        <dc:format>image/svg+xml</dc:format>
        <dc:type
           rdf:resource="http://purl.org/dc/dcmitype/StillImage" />
        <dc:title></dc:title>
      </cc:Work>
    </rdf:RDF>
  </metadata>
  <g
     inkscape:label="Layer 1"
     inkscape:groupmode="layer"
     id="layer1">
    <g
       inkscape:label="0"
       id="g3023"
       transform="matrix(0.30968679,0,0,0.30968679,350.17549,18.782273)" />
    <path
       id="path3045"
       d="M 251.4171,443.44332 z"
       style="fill:none;stroke:#00ff00;stroke-width:0.30968678;stroke-linecap:round"
       inkscape:connector-curvature="0"
       sodipodi:nodetypes="cc" />
    <path
       id="path3125"
       style="fill:#b4783c;stroke:#000000;stroke-width:0.5;stroke-linecap:round;fill-opacity:1;stroke-opacity:1;stroke-miterlimit:4;stroke-dasharray:none"
       d="m 350.17549,103.27556 164.59731,0 0,32.91946 -42.89914,0 c 17.86348,10.42714 34.37823,23.16189 49.00404,37.78771 L 637.26558,290.3706 613.988,313.64818 583.65373,283.3139 c 5.25829,20.00448 7.93115,40.68701 7.93115,61.37104 l 0,164.59733 -32.91946,0 0,-42.89915 c -10.42714,17.86347 -23.1619,34.37822 -37.78772,49.00403 l -116.38787,116.38789 -23.27757,-23.27758 30.33427,-30.33429 c -20.00448,5.2583 -40.68701,7.93116 -61.37104,7.93117 l -164.59731,0 0,-32.91945 42.89914,0 C 210.61384,542.74774 194.09909,530.01298 179.47328,515.38715 L 63.085402,398.9993 86.362976,375.72172 116.69725,406.05598 c -5.25829,-20.00448 -7.93115,-40.68701 -7.93115,-61.37104 l 0,-164.5973 32.91946,0 0,42.89914 c 10.42714,-17.86348 23.1619,-34.37823 37.78772,-49.00405 L 295.86115,57.594857 319.13872,80.87243 288.80445,111.20671 c 20.00448,-5.25829 40.68701,-7.93115 61.37104,-7.93115 z m 10.97315,307.2483 -32.91946,0 0,32.91946 -54.86577,0 c -23.5931,-3.65527 -45.78918,-15.75025 -61.65059,-33.59433 -15.8614,-17.84407 -25.27067,-41.30512 -26.13464,-65.16405 0,-17.23659 7.09566,-34.36704 19.28377,-46.55515 12.18811,-12.18811 29.31856,-19.28377 46.55515,-19.28377 l 109.73154,0 c 17.23659,0 34.36704,7.09566 46.55515,19.28377 12.18811,12.18811 19.28378,29.31856 19.28378,46.55515 0,26.78709 -6.90477,53.54548 -19.86609,76.98802 -12.96132,23.44254 -31.95141,43.51898 -54.63743,57.76303 -22.68601,14.24405 -49.01934,22.62518 -75.76504,24.11381 -26.74569,1.48862 -53.84645,-3.91845 -77.97305,-15.55698 16.49634,17.43123 36.02814,31.98201 57.45121,42.79996 21.42307,10.81796 44.72732,17.89799 68.54725,20.82542 23.81993,2.92744 48.14429,1.70091 71.54757,-3.60755 23.40328,-5.30845 45.87443,-14.69632 66.09673,-27.61347 20.22231,-12.91715 38.18623,-29.35749 52.83971,-48.35793 14.65347,-19.00044 25.9896,-40.55202 33.34507,-63.39246 7.35547,-22.84044 10.72685,-46.95899 9.91739,-70.94312 -0.80946,-23.98412 -5.79934,-47.82254 -14.67706,-70.11904 -17.75543,-44.59298 -51.41957,-82.66026 -93.50362,-105.72728 -21.04203,-11.53351 -44.08936,-19.39474 -67.79257,-23.12283 -23.70321,-3.72809 -48.05115,-3.32127 -71.61767,1.19683 -23.56653,4.51809 -46.34053,13.14533 -66.98753,25.37622 -20.64701,12.23089 -39.15724,28.05966 -54.44582,46.5588 -15.28859,18.49914 -27.3483,39.65991 -35.47237,62.24255 -8.12407,22.58264 -12.30869,46.5765 -12.30869,70.57602 -1e-5,27.44436 9.25722,54.8075 25.91958,76.61481 16.66235,21.80731 40.63121,37.92972 67.11105,45.14157 26.47985,7.21185 55.31395,5.47046 80.7334,-4.87577 25.41945,-10.34623 47.27379,-29.23606 61.19057,-52.89015 -5.06637,1.22651 -10.27881,1.84847 -15.49152,1.84846 z M 228.13953,367.96251 c 6.09405,6.09406 14.65928,9.64189 23.27757,9.64189 l 109.73154,0 c 8.61829,0 17.18352,-3.54783 23.27757,-9.64189 6.09406,-6.09405 9.64189,-14.65928 9.64189,-23.27757 0,-8.61829 -3.54783,-17.18352 -9.64189,-23.27757 -6.09405,-6.09406 -14.65928,-9.64189 -23.27757,-9.64189 l -109.73154,0 c -8.61829,0 -17.18352,3.54783 -23.27757,9.64189 -6.09406,6.09405 -9.64189,14.65928 -9.64189,23.27757 0,8.61829 3.54783,17.18352 9.64189,23.27757 z" />
    <path
       id="path3153"
       style="fill:#dca03c;stroke:#000000;stroke-width:0.5;stroke-linecap:round;fill-opacity:1;stroke-opacity:1;stroke-miterlimit:4;stroke-dasharray:none"
       d="m 196.55133,344.68494 c -0.23557,21.27962 7.62264,42.55069 21.63622,58.56621 14.01358,16.01553 34.05329,26.6278 55.17586,29.21904 l 43.89262,0 0,-10.97317 -43.89262,0 c -11.0233,-0.84794 -21.83817,-4.29551 -31.3185,-9.9837 -9.48032,-5.68819 -17.61165,-13.60835 -23.54727,-22.93575 9.41498,7.06124 21.15073,10.97316 32.91946,10.97316 l 109.73154,0 c 14.03089,-10e-6 27.98301,-5.63094 38.0833,-15.37004 -9.37865,31.1915 -30.27443,58.77753 -57.76014,76.25333 -27.48572,17.47581 -61.33105,24.69495 -93.55531,19.95518 -32.22426,-4.73977 -62.55743,-21.39874 -83.84698,-46.04876 -21.28955,-24.65002 -33.35709,-57.08453 -33.3571,-89.6555 0,-26.81009 4.96704,-53.61218 14.57406,-78.64185 9.60702,-25.02967 23.84832,-48.27198 41.78571,-68.19663 17.93739,-19.92464 39.56009,-36.5197 63.44345,-48.69237 23.88337,-12.17266 50.01304,-19.91564 76.66806,-22.71913 26.65501,-2.80348 53.81942,-0.66581 79.70531,6.27198 25.88588,6.9378 50.47783,18.67155 72.15837,34.42833 21.68053,15.75678 40.43679,35.52717 55.03564,58.00937 14.59886,22.48221 25.03166,47.66281 30.61234,73.88426 5.58069,26.22144 6.30592,53.46809 2.12735,79.94668 -4.17858,26.47859 -13.25854,52.17332 -26.64373,75.39311 -13.38519,23.21979 -31.06771,43.95077 -51.88499,60.82835 -20.81728,16.87759 -44.75695,29.89169 -70.24348,38.18543 -25.48653,8.29375 -52.50467,11.86217 -79.27501,10.47008 -26.77034,-1.39209 -53.27679,-7.74387 -77.77318,-18.63738 -24.49638,-10.89351 -46.968,-26.32224 -65.93482,-45.27057 -18.96681,-18.94833 -34.41753,-41.40493 -45.33494,-65.89148 18.57359,24.5542 44.99445,43.07702 74.40991,52.16643 29.41546,9.08942 61.68007,8.70047 90.86787,-1.09539 29.18781,-9.79587 55.15447,-28.95021 73.13076,-53.945 17.97629,-24.9948 27.87332,-55.70645 27.87332,-86.49422 0,-14.36382 -5.91306,-28.6392 -16.06982,-38.79595 -10.15675,-10.15676 -24.43213,-16.06981 -38.79595,-16.06981 l -109.73154,0 c -14.36382,0 -28.6392,5.91305 -38.79595,16.06981 -10.15676,10.15675 -16.06982,24.43213 -16.06982,38.79595 z m 384.06039,0 c 0,-30.16403 -5.99764,-60.3162 -17.54091,-88.18413 -11.54328,-27.86793 -28.62311,-53.42969 -49.9523,-74.75887 -21.32919,-21.32918 -46.89096,-38.40899 -74.75889,-49.95225 -27.86794,-11.54326 -58.0201,-17.54088 -88.18413,-17.54088 -30.16403,0 -60.31619,5.99762 -88.18413,17.54088 -27.86793,11.54326 -53.4297,28.62307 -74.75889,49.95225 -21.32919,21.32918 -38.40902,46.89094 -49.9523,74.75887 -11.54327,27.86793 -17.54091,58.0201 -17.54091,88.18413 0,30.16403 5.99764,60.3162 17.54091,88.18413 11.54328,27.86793 28.62311,53.42969 49.9523,74.75887 21.32919,21.32918 46.89096,38.40899 74.75889,49.95225 27.86794,11.54326 58.0201,17.54088 88.18413,17.54088 30.16403,0 60.31619,-5.99762 88.18413,-17.54088 27.86793,-11.54326 53.4297,-28.62307 74.75889,-49.95225 21.32919,-21.32918 38.40902,-46.89094 49.9523,-74.75887 11.54327,-27.86793 17.54091,-58.0201 17.54091,-88.18413 z M 251.4171,388.57757 c -11.49106,0 -22.91136,-4.73045 -31.03677,-12.85586 -8.1254,-8.12541 -12.85584,-19.54571 -12.85584,-31.03677 0,-11.49106 4.73044,-22.91136 12.85585,-31.03676 8.1254,-8.12541 19.5457,-12.85585 31.03676,-12.85585 l 109.73154,0 c 11.49106,0 22.91136,4.73044 31.03677,12.85585 8.1254,8.1254 12.85585,19.5457 12.85585,31.03676 0,11.49106 -4.73044,22.91137 -12.85585,31.03678 -8.1254,8.12541 -19.54571,12.85585 -31.03677,12.85585 z"
       inkscape:connector-curvature="0"
       sodipodi:nodetypes="csccccscsscssssssssssssssssssscsssssssscssssssssssssssssssssssssssss" />
  </g>
</svg>
