<?xml version="1.0" encoding="UTF-8" standalone="no"?>
<!-- Created with Inkscape (http://www.inkscape.org/) -->

<svg
   xmlns:dc="http://purl.org/dc/elements/1.1/"
   xmlns:cc="http://creativecommons.org/ns#"
   xmlns:rdf="http://www.w3.org/1999/02/22-rdf-syntax-ns#"
   xmlns:svg="http://www.w3.org/2000/svg"
   xmlns="http://www.w3.org/2000/svg"
   xmlns:sodipodi="http://sodipodi.sourceforge.net/DTD/sodipodi-0.dtd"
   xmlns:inkscape="http://www.inkscape.org/namespaces/inkscape"
   width="744.09448819"
   height="1052.3622047"
   id="svg2"
   version="1.1"
   inkscape:version="0.48.3.1 r9886"
   sodipodi:docname="New document 1">
  <defs
     id="defs4">
    <symbol
       id="*Paper_Space0" />
    <symbol
       id="*Paper_Space" />
    <symbol
       id="*Model_Space" />
    <pattern
       id="Hatch"
       x="0"
       y="0"
       patternUnits="userSpaceOnUse"
       width="8"
       height="8">
      <path
         id="path3014"
         d="M8 4 l-4,4"
         stroke-width="0.25"
         stroke="#000000"
         linecap="square" />
      <path
         id="path3016"
         d="M6 2 l-4,4"
         stroke-width="0.25"
         stroke="#000000"
         linecap="square" />
      <path
         id="path3018"
         d="M4 0 l-4,4"
         stroke-width="0.25"
         stroke="#000000"
         linecap="square" />
    </pattern>
    <marker
       orient="auto"
       id="DistanceX"
       style="overflow:visible"
       refX="0.0"
       refY="0.0">
      <path
         id="path3011"
         d="M 3,-3 L -3,3 M 0,-5 L  0,5"
         style="stroke:#000000; stroke-width:0.5" />
    </marker>
  </defs>
  <sodipodi:namedview
     id="base"
     pagecolor="#ffffff"
     bordercolor="#666666"
     borderopacity="1.0"
     inkscape:pageopacity="0.0"
     inkscape:pageshadow="2"
     inkscape:zoom="1.4"
     inkscape:cx="394.25188"
     inkscape:cy="721.47428"
     inkscape:document-units="px"
     inkscape:current-layer="layer1"
     showgrid="false"
     inkscape:window-width="1855"
     inkscape:window-height="1056"
     inkscape:window-x="65"
     inkscape:window-y="24"
     inkscape:window-maximized="1" />
  <metadata
     id="metadata7">
    <rdf:RDF>
      <cc:Work
         rdf:about="">
        <dc:format>image/svg+xml</dc:format>
        <dc:type
           rdf:resource="http://purl.org/dc/dcmitype/StillImage" />
        <dc:title></dc:title>
      </cc:Work>
    </rdf:RDF>
  </metadata>
  <g
     inkscape:label="Layer 1"
     inkscape:groupmode="layer"
     id="layer1">
    <g
       inkscape:label="0"
       id="g3023"
       transform="matrix(0.29484614,0,0,0.29484614,349.01804,41.813977)" />
    <path
       id="path3137"
       style="fill:#b4783c;stroke:#000000;stroke-width:0.5;stroke-linecap:round;fill-opacity:1;stroke-opacity:1;stroke-miterlimit:4;stroke-dasharray:none"
       d="m 219.84798,418.58514 c 17.40606,17.40606 41.87036,27.5395 66.48624,27.5395 l 41.78921,0 0,-31.34191 31.34191,0 c 4.96291,10e-6 9.92556,-0.59214 14.74914,-1.75988 -13.24987,22.52055 -34.05692,40.50514 -58.25823,50.35556 -24.20131,9.85042 -51.65363,11.50836 -76.86452,4.64211 -25.21089,-6.86625 -48.03112,-22.21604 -63.89499,-42.97831 -15.86387,-20.76226 -24.67748,-46.81412 -24.67748,-72.9433 0,-22.84943 3.98409,-45.69347 11.71884,-67.19391 7.73475,-21.50045 19.21654,-41.64716 33.77248,-59.2598 14.55593,-17.61263 32.17912,-32.68286 51.83669,-44.32763 19.65757,-11.64477 41.3402,-19.85857 63.77739,-24.16015 22.43718,-4.30159 45.61833,-4.68892 68.18564,-1.13948 22.56732,3.54943 44.51019,11.03394 64.54385,22.01475 40.06732,21.96161 72.11823,58.20465 89.02279,100.66067 8.45229,21.22802 13.20305,43.92406 13.97371,66.75883 0.77067,22.83478 -2.43914,45.79753 -9.44213,67.54342 -14.00596,43.49179 -43.54823,81.79886 -82.05467,106.39514 -19.25323,12.29815 -40.64752,21.23613 -62.92928,26.2902 -22.28176,5.05407 -45.44046,6.22182 -68.1189,3.43467 -22.67845,-2.78715 -44.86592,-9.52789 -65.26237,-19.82743 -20.39644,-10.29955 -38.99225,-24.15303 -54.69806,-40.74893 22.97042,11.08079 48.77246,16.22875 74.23647,14.81146 25.464,-1.41729 50.53539,-9.39678 72.13426,-22.95823 21.59887,-13.56146 39.67893,-32.67581 52.01912,-54.99494 12.3402,-22.31914 18.91408,-47.79523 18.91408,-73.29864 0,-16.41059 -6.75563,-32.72012 -18.35967,-44.32416 -11.60404,-11.60403 -27.91357,-18.35966 -44.32416,-18.35966 l -104.47304,0 c -16.41059,0 -32.72012,6.75563 -44.32415,18.35967 -11.60404,11.60403 -18.35967,27.91356 -18.35967,44.32415 0,24.61588 10.13345,49.08018 27.5395,66.48623 z M 119.17735,352.09891 c 0,19.69282 2.54478,39.3842 7.55108,58.43004 L 97.847813,381.64836 75.685735,403.81044 186.49613,514.62081 c 13.92492,13.92493 29.64827,26.04943 46.6557,35.97689 l -40.84335,0 0,31.34191 156.70956,0 c 19.69282,0 39.38421,-2.54478 58.43005,-7.55109 l -28.88061,28.88062 22.16208,22.16208 110.81039,-110.81041 c 13.92493,-13.92492 26.04942,-29.64825 35.97687,-46.65568 l 0,40.84335 31.34191,0 0,-156.70957 c 0,-19.69282 -2.54477,-39.38421 -7.55108,-58.43005 l 28.88062,28.88061 22.16208,-22.16208 L 511.53995,189.577 c -13.92492,-13.92493 -29.64827,-26.04942 -46.6557,-35.97687 l 40.84335,0 0,-31.34191 -156.70956,0 c -19.69282,0 -39.38421,2.54477 -58.43005,7.55108 L 319.4686,100.92868 297.30652,78.766604 186.49613,189.577 c -13.92493,13.92492 -26.04942,29.64827 -35.97687,46.6557 l 0,-40.84335 -31.34191,0 z M 359.46534,320.757 c 8.20529,0 16.36006,3.37781 22.16208,9.17983 5.80202,5.80202 9.17984,13.95679 9.17984,22.16208 0,8.20529 -3.37782,16.36006 -9.17984,22.16208 -5.80202,5.80202 -13.95679,9.17983 -22.16208,9.17983 l -104.47304,0 c -8.20529,0 -16.36006,-3.37782 -22.16208,-9.17983 -5.80201,-5.80202 -9.17983,-13.95679 -9.17983,-22.16208 0,-8.20529 3.37782,-16.36006 9.17983,-22.16208 5.80202,-5.80201 13.95679,-9.17983 22.16208,-9.17983 z"
       inkscape:connector-curvature="0"
       sodipodi:nodetypes="ssccscssssssssssssssssscssssssssssscccscccscccscccscccscccscccscccssssssssssss" />
    <path
       id="path3181"
       style="fill:#f0a03c;stroke:#000000;stroke-width:0.5;stroke-linecap:round;fill-opacity:1;stroke-opacity:1;stroke-miterlimit:4;stroke-dasharray:none"
       d="m 140.07196,352.09891 c 0,-25.52531 4.72901,-51.043 13.87566,-74.87321 9.14664,-23.83021 22.70547,-45.95872 39.78327,-64.92854 17.07781,-18.96983 37.66432,-34.76963 60.40316,-46.35896 22.73883,-11.58933 47.61633,-18.96125 72.994,-21.63039 25.37767,-2.66914 51.24032,-0.63391 75.88571,5.97142 24.6454,6.60533 48.05886,17.77678 68.70043,32.77848 20.64157,15.00169 38.499,33.82465 52.39826,55.22948 13.89925,21.40482 23.83209,45.37873 29.14534,70.34361 5.31325,24.96487 6.00373,50.90582 2.0254,76.11551 -3.97834,25.2097 -12.62318,49.67311 -25.36693,71.78017 -12.74376,22.10705 -29.5789,41.84457 -49.39859,57.91336 -19.81969,16.06878 -42.61213,28.45922 -66.87731,36.35552 -24.26518,7.8963 -49.98857,11.29371 -75.47603,9.96833 -25.48746,-1.32538 -50.72369,-7.37277 -74.04617,-17.74425 -23.32248,-10.37148 -44.71722,-25.06085 -62.77512,-43.10115 -18.0579,-18.0403 -32.76819,-39.42074 -43.16242,-62.73386 17.68352,23.37752 42.83825,41.0127 70.84407,49.66654 28.00583,8.65383 58.72428,8.28353 86.51336,-1.0429 27.78908,-9.32644 52.51138,-27.56287 69.62622,-51.35988 17.11484,-23.79701 26.53759,-53.0369 26.53759,-82.34928 0,-13.67549 -5.62969,-27.26677 -15.29972,-36.9368 -9.67003,-9.67003 -23.26131,-15.29972 -36.9368,-15.29972 l -104.47304,0 c -13.67549,0 -27.26677,5.62969 -36.9368,15.29972 -9.67003,9.67003 -15.29972,23.26131 -15.29972,36.9368 0,21.88078 9.00751,43.62683 24.47956,59.09888 15.47205,15.47205 37.2181,24.47956 59.09888,24.47956 l 31.34191,0 0,-10.44731 -31.34191,0 c -11.0166,0 -22.02561,-2.53084 -31.93623,-7.34177 -9.91062,-4.81093 -18.7092,-11.89531 -25.52395,-20.55121 7.89555,4.5585 17.00127,6.99838 26.11826,6.99838 l 104.47304,0 c 13.35851,0 26.64203,-5.36109 36.2583,-14.63348 -8.9292,29.69676 -28.82362,55.96085 -54.99218,72.5992 -26.16856,16.63835 -58.39198,23.51154 -89.07202,18.99891 -30.68003,-4.51264 -59.5596,-20.37329 -79.82892,-43.84205 -20.26932,-23.46876 -31.75856,-54.34898 -31.75856,-85.35911 z m 219.39338,-41.78922 c 10.94039,0 21.81342,4.50375 29.54944,12.23978 7.73603,7.73602 12.23978,18.60905 12.23978,29.54944 0,10.94039 -4.50375,21.81342 -12.23978,29.54944 -7.73602,7.73603 -18.60905,12.23978 -29.54944,12.23978 l -104.47304,0 c -10.94039,0 -21.81341,-4.50376 -29.54944,-12.23978 -7.73602,-7.73603 -12.23977,-18.60905 -12.23977,-29.54944 0,-10.94039 4.50375,-21.81341 12.23977,-29.54944 7.73603,-7.73602 18.60905,-12.23978 29.54944,-12.23978 z m 208.94609,41.78922 c 0,-28.71853 -5.71022,-57.42576 -16.70033,-83.95821 -10.9901,-26.53246 -27.25144,-50.86927 -47.55851,-71.17633 -20.30706,-20.30705 -44.64388,-36.56837 -71.17634,-47.55846 -26.53246,-10.99009 -55.23968,-16.70029 -83.95821,-16.70029 -28.71853,0 -57.42575,5.7102 -83.95821,16.70029 -26.53246,10.99009 -50.86928,27.25141 -71.17634,47.55846 -20.30707,20.30706 -36.56841,44.64387 -47.55851,71.17633 -10.99011,26.53245 -16.70033,55.23968 -16.70033,83.95821 0,28.71853 5.71022,57.42576 16.70033,83.95821 10.9901,26.53246 27.25144,50.86927 47.55851,71.17633 20.30706,20.30705 44.64388,36.56837 71.17634,47.55846 26.53246,10.99009 55.23968,16.70029 83.95821,16.70029 28.71853,0 57.42575,-5.7102 83.95821,-16.70029 26.53246,-10.99009 50.86928,-27.25141 71.17634,-47.55846 20.30707,-20.30706 36.56841,-44.64387 47.55851,-71.17633 10.99011,-26.53245 16.70033,-55.23968 16.70033,-83.95821 z"
       inkscape:connector-curvature="0"
       sodipodi:nodetypes="cssssssssssssssscssscsccscsccccsccccsssccscsccscsccsssssssssssssssss" />
  </g>
</svg>
