<?xml version="1.0" encoding="UTF-8" standalone="no"?>
<!-- Created with Inkscape (http://www.inkscape.org/) -->

<svg
   xmlns:dc="http://purl.org/dc/elements/1.1/"
   xmlns:cc="http://creativecommons.org/ns#"
   xmlns:rdf="http://www.w3.org/1999/02/22-rdf-syntax-ns#"
   xmlns:svg="http://www.w3.org/2000/svg"
   xmlns="http://www.w3.org/2000/svg"
   xmlns:sodipodi="http://sodipodi.sourceforge.net/DTD/sodipodi-0.dtd"
   xmlns:inkscape="http://www.inkscape.org/namespaces/inkscape"
   width="744.09448819"
   height="1052.3622047"
   id="svg2"
   version="1.1"
   inkscape:version="0.48.3.1 r9886"
   sodipodi:docname="synchrotron_bottom.svg">
  <defs
     id="defs4">
    <pattern
       id="Hatch"
       x="0"
       y="0"
       patternUnits="userSpaceOnUse"
       width="8"
       height="8">
      <path
         id="path3014"
         d="M8 4 l-4,4"
         stroke-width="0.25"
         stroke="#000000"
         linecap="square" />
      <path
         id="path3016"
         d="M6 2 l-4,4"
         stroke-width="0.25"
         stroke="#000000"
         linecap="square" />
      <path
         id="path3018"
         d="M4 0 l-4,4"
         stroke-width="0.25"
         stroke="#000000"
         linecap="square" />
    </pattern>
    <marker
       orient="auto"
       id="DistanceX"
       style="overflow:visible"
       refX="0.0"
       refY="0.0">
      <path
         id="path3011"
         d="M 3,-3 L -3,3 M 0,-5 L  0,5"
         style="stroke:#000000; stroke-width:0.5" />
    </marker>
    <pattern
       id="Hatch-4"
       x="0"
       y="0"
       patternUnits="userSpaceOnUse"
       width="8"
       height="8">
      <path
         id="path3219"
         d="M8 4 l-4,4"
         stroke-width="0.25"
         stroke="#000000"
         linecap="square" />
      <path
         id="path3221"
         d="M6 2 l-4,4"
         stroke-width="0.25"
         stroke="#000000"
         linecap="square" />
      <path
         id="path3223"
         d="M4 0 l-4,4"
         stroke-width="0.25"
         stroke="#000000"
         linecap="square" />
    </pattern>
    <marker
       orient="auto"
       id="DistanceX-9"
       style="overflow:visible"
       refX="0.0"
       refY="0.0">
      <path
         id="path3216"
         d="M 3,-3 L -3,3 M 0,-5 L  0,5"
         style="stroke:#000000; stroke-width:0.5" />
    </marker>
  </defs>
  <sodipodi:namedview
     id="base"
     pagecolor="#ffffff"
     bordercolor="#666666"
     borderopacity="1.0"
     inkscape:pageopacity="0.0"
     inkscape:pageshadow="2"
     inkscape:zoom="1"
     inkscape:cx="371.81894"
     inkscape:cy="764.07883"
     inkscape:document-units="px"
     inkscape:current-layer="layer1"
     showgrid="false"
     inkscape:window-width="959"
     inkscape:window-height="576"
     inkscape:window-x="65"
     inkscape:window-y="24"
     inkscape:window-maximized="1" />
  <metadata
     id="metadata7">
    <rdf:RDF>
      <cc:Work
         rdf:about="">
        <dc:format>image/svg+xml</dc:format>
        <dc:type
           rdf:resource="http://purl.org/dc/dcmitype/StillImage" />
        <dc:title />
      </cc:Work>
    </rdf:RDF>
  </metadata>
  <g
     inkscape:label="Layer 1"
     inkscape:groupmode="layer"
     id="layer1">
    <path
       id="path3609"
       style="fill:#b4783c;fill-opacity:1;fill-rule:nonzero;stroke:#000000;stroke-width:1;stroke-miterlimit:4;stroke-dasharray:none"
       d="m 284.41594,286.25356 2.79706,0.26657 22.91067,0 5.58007,-0.54821 5.38332,-1.63036 4.94755,-2.64269 4.34318,-3.55584 3.55609,-4.34326 2.64245,-4.94781 1.63048,-5.38336 0.54818,-5.58011 -0.54818,-5.5797 -1.63048,-5.38337 -2.64245,-4.94779 -3.55609,-4.34326 -4.34318,-3.55586 -4.94755,-2.64267 -5.38332,-1.62997 -2.78299,-0.28204 -8.53177,-0.26658 -17.17598,0 -5.58008,0.54823 -5.3833,1.63036 -4.94758,2.64267 -4.34318,3.55586 -3.55607,4.34326 -2.64246,4.94779 -1.63046,5.38337 -0.54816,5.5797 0.54816,5.58011 1.63046,5.38336 2.64246,4.94781 3.55607,4.34326 4.34318,3.55584 4.94758,2.64269 5.3833,1.62995 z m 63.60261,-152.75712 -25.67874,2.53003 -44.8093,13.59174 -41.30947,22.08144 -36.19323,29.7134 -29.71358,36.19355 -22.08138,41.30915 -13.59179,44.80947 -4.5971,46.60842 4.59527,46.60842 13.5918,44.80946 22.08137,41.30955 29.71358,36.19317 36.19323,29.71338 41.30948,22.08164 44.80929,13.59148 46.60846,4.59633 46.60846,-4.59633 44.80931,-13.59148 41.30947,-22.08164 36.19321,-29.71338 29.71362,-36.19317 22.08135,-41.30955 13.5918,-44.80946 4.59617,-46.60842 -4.59617,-46.60842 -13.5918,-44.80947 -22.08135,-41.30915 -29.71362,-36.19355 -36.19321,-29.7134 -41.30947,-22.08144 -44.80931,-13.59174 -25.45474,-2.71275 -48.42164,41.77319 -8.03981,13.19838 6.84509,0.67474 13.18417,4.00569 12.15815,6.49367 10.65413,8.72857 8.72856,10.65405 6.49366,12.15826 4.00589,13.18409 1.34932,13.70413 -1.34932,13.70454 -4.00589,13.18408 -6.49366,12.15828 -8.72856,10.65405 -10.65413,8.72857 -12.15815,6.49365 -13.18417,4.00569 -13.70421,1.3495 56.22248,0 0,42.16679 -70.27811,0 -69.05527,-47.52198 -12.15811,-6.49365 -10.65416,-8.72857 -8.72854,-10.65405 -6.4937,-12.15828 -4.00586,-13.18408 -1.34933,-13.70454 1.34933,-13.70413 4.00586,-13.18409 6.4937,-12.15826 8.72854,-10.65405 10.65416,-8.72857 12.15811,-6.49367 13.18417,-4.00569 13.70423,-1.3495 28.11125,0 23.65561,-33.26962 z m -133.19018,471.67862 -0.1125,-0.0559 -1.93967,-1.05438 -7.19646,-5.90341 -35.39206,-29.03902 -115.635601,-115.62137 -23.50191,-23.51524 1.418705,-1.41973 26.902456,-26.9025 1.489898,-1.48993 29.558972,29.53091 6.015806,6.01607 -2.515958,-8.30689 -0.04217,-0.1119 -0.646558,-2.12305 -0.913616,-9.27677 -4.497797,-45.58221 0,-163.53723 -0.01384,-33.25574 42.166783,0 0.0843,41.70306 0,8.51792 4.04802,-7.53416 0.0562,-0.0988 1.05418,-1.95326 5.8893,-7.21046 29.01081,-35.39186 115.60839,-115.635634 23.50193,-23.514904 1.4196,1.419602 26.90245,26.902461 1.4899,1.489893 -29.43246,29.558952 -6.02987,6.015824 8.27879,-2.501905 0.11265,-0.02776 2.13637,-0.646728 9.2767,-0.913596 45.58236,-4.497805 163.53715,-0.01475 33.24154,9.91e-4 0,42.166859 -41.88573,-0.0281 -8.50365,0.0147 7.73061,4.15956 0.1122,0.0421 1.92568,1.05424 7.21054,5.90335 35.43423,29.08092 115.64965,115.63565 23.51505,23.51524 -1.4196,1.41972 -26.91654,26.90211 -1.4899,1.48993 -29.61516,-29.65705 -6.02986,-6.04423 2.51594,8.37711 0.0421,0.11189 0.64664,2.1512 5.39736,54.8451 0,196.7787 -42.16687,0 -0.0564,-50.2067 -4.11822,7.68846 -0.21064,0.38042 -0.8153,1.53139 -5.91744,7.21046 -29.06699,35.43431 -115.6497,115.64953 -23.50099,23.51524 -1.50394,-1.48993 -26.90247,-26.91677 -1.4196,-1.41933 29.46058,-29.55907 5.9877,-6.00178 -8.19444,2.45981 -0.11219,0.0357 -2.08032,0.62657 -9.26265,0.91355 -45.56832,4.51184 -163.52308,0.0357 -33.24156,-0.008 0,-42.16678 41.63275,-0.11189 8.50366,-0.008 z"
       inkscape:connector-curvature="0"
       sodipodi:nodetypes="ccccccccccccccccccccccccccccccccccccccccccccccccccccccccccccccccccccccccccccccccccccccccccccccccccccccccccccccccccccccccccccccccccccccccccccccccccccccccccccccccccccccccccccccccccccccccccccccccccc" />
  </g>
</svg>
