  0
SECTION
  2
BLOCKS
  0
ENDSEC
  0
SECTION
  2
ENTITIES
  0
LINE
  8
0
 10
-24.04
 11
-23.939
 20
-4.244
 21
-4.143
  0
LINE
  8
0
 10
-23.939
 11
-22.025
 20
-4.143
 21
-2.229
  0
LINE
  8
0
 10
-22.025
 11
-21.919
 20
-2.229
 21
-2.123
  0
LINE
  8
0
 10
-21.919
 11
-19.816
 20
-2.123
 21
-4.224
  0
LINE
  8
0
 10
-19.816
 11
-19.388
 20
-4.224
 21
-4.652
  0
LINE
  8
0
 10
-19.388
 11
-19.567
 20
-4.652
 21
-4.061
  0
LINE
  8
0
 10
-19.567
 11
-19.57
 20
-4.061
 21
-4.053
  0
LINE
  8
0
 10
-19.57
 11
-19.616
 20
-4.053
 21
-3.902
  0
LINE
  8
0
 10
-19.616
 11
-19.681
 20
-3.902
 21
-3.242
  0
LINE
  8
0
 10
-19.681
 11
-20.001
 20
-3.242
 21
0.001
  0
LINE
  8
0
 10
-20.001
 11
-20.001
 20
0.001
 21
11.636
  0
LINE
  8
0
 10
-20.001
 11
-20.002
 20
11.636
 21
14.002
  0
LINE
  8
0
 10
-20.002
 11
-17.002
 20
14.002
 21
14.002
  0
LINE
  8
0
 10
-17.002
 11
-16.996
 20
14.002
 21
11.035
  0
LINE
  8
0
 10
-16.996
 11
-16.996
 20
11.035
 21
10.429
  0
LINE
  8
0
 10
-16.996
 11
-16.708
 20
10.429
 21
10.965
  0
LINE
  8
0
 10
-16.708
 11
-16.704
 20
10.965
 21
10.972
  0
LINE
  8
0
 10
-16.704
 11
-16.629
 20
10.972
 21
11.111
  0
LINE
  8
0
 10
-16.629
 11
-16.21
 20
11.111
 21
11.624
  0
LINE
  8
0
 10
-16.21
 11
-14.146
 20
11.624
 21
14.142
  0
LINE
  8
0
 10
-14.146
 11
-5.921
 20
14.142
 21
22.369
  0
LINE
  8
0
 10
-5.921
 11
-4.249
 20
22.369
 21
24.042
  0
LINE
  8
0
 10
-4.249
 11
-4.148
 20
24.042
 21
23.941
  0
LINE
  8
0
 10
-4.148
 11
-2.234
 20
23.941
 21
22.027
  0
LINE
  8
0
 10
-2.234
 11
-2.128
 20
22.027
 21
21.921
  0
LINE
  8
0
 10
-2.128
 11
-4.222
 20
21.921
 21
19.818
  0
LINE
  8
0
 10
-4.222
 11
-4.651
 20
19.818
 21
19.39
  0
LINE
  8
0
 10
-4.651
 11
-4.062
 20
19.39
 21
19.568
  0
LINE
  8
0
 10
-4.062
 11
-4.054
 20
19.568
 21
19.57
  0
LINE
  8
0
 10
-4.054
 11
-3.902
 20
19.57
 21
19.616
  0
LINE
  8
0
 10
-3.902
 11
-3.242
 20
19.616
 21
19.681
  0
LINE
  8
0
 10
-3.242
 11
0.001
 20
19.681
 21
20.001
  0
LINE
  8
0
 10
0.001
 11
11.636
 20
20.001
 21
20.002
  0
LINE
  8
0
 10
11.636
 11
14.001
 20
20.002
 21
20.002
  0
LINE
  8
0
 10
14.001
 11
14.001
 20
20.002
 21
17.002
  0
LINE
  8
0
 10
14.001
 11
11.021
 20
17.002
 21
17.004
  0
LINE
  8
0
 10
11.021
 11
10.416
 20
17.004
 21
17.003
  0
LINE
  8
0
 10
10.416
 11
10.966
 20
17.003
 21
16.707
  0
LINE
  8
0
 10
10.966
 11
10.974
 20
16.707
 21
16.704
  0
LINE
  8
0
 10
10.974
 11
11.111
 20
16.704
 21
16.629
  0
LINE
  8
0
 10
11.111
 11
11.624
 20
16.629
 21
16.209
  0
LINE
  8
0
 10
11.624
 11
14.145
 20
16.209
 21
14.14
  0
LINE
  8
0
 10
14.145
 11
22.373
 20
14.14
 21
5.913
  0
LINE
  8
0
 10
22.373
 11
24.046
 20
5.913
 21
4.24
  0
LINE
  8
0
 10
24.046
 11
23.945
 20
4.24
 21
4.139
  0
LINE
  8
0
 10
23.945
 11
22.03
 20
4.139
 21
2.225
  0
LINE
  8
0
 10
22.03
 11
21.924
 20
2.225
 21
2.119
  0
LINE
  8
0
 10
21.924
 11
19.817
 20
2.119
 21
4.229
  0
LINE
  8
0
 10
19.817
 11
19.388
 20
4.229
 21
4.659
  0
LINE
  8
0
 10
19.388
 11
19.567
 20
4.659
 21
4.063
  0
LINE
  8
0
 10
19.567
 11
19.57
 20
4.063
 21
4.055
  0
LINE
  8
0
 10
19.57
 11
19.616
 20
4.055
 21
3.902
  0
LINE
  8
0
 10
19.616
 11
20
 20
3.902
 21
0
  0
LINE
  8
0
 10
20
 11
20
 20
0
 21
-14
  0
LINE
  8
0
 10
20
 11
17
 20
-14
 21
-14
  0
LINE
  8
0
 10
17
 11
16.996
 20
-14
 21
-10.428
  0
LINE
  8
0
 10
16.996
 11
16.703
 20
-10.428
 21
-10.975
  0
LINE
  8
0
 10
16.703
 11
16.688
 20
-10.975
 21
-11.002
  0
LINE
  8
0
 10
16.688
 11
16.63
 20
-11.002
 21
-11.111
  0
LINE
  8
0
 10
16.63
 11
16.209
 20
-11.111
 21
-11.624
  0
LINE
  8
0
 10
16.209
 11
14.141
 20
-11.624
 21
-14.145
  0
LINE
  8
0
 10
14.141
 11
5.913
 20
-14.145
 21
-22.373
  0
LINE
  8
0
 10
5.913
 11
4.241
 20
-22.373
 21
-24.046
  0
LINE
  8
0
 10
4.241
 11
4.134
 20
-24.046
 21
-23.94
  0
LINE
  8
0
 10
4.134
 11
2.22
 20
-23.94
 21
-22.025
  0
LINE
  8
0
 10
2.22
 11
2.119
 20
-22.025
 21
-21.924
  0
LINE
  8
0
 10
2.119
 11
4.215
 20
-21.924
 21
-19.821
  0
LINE
  8
0
 10
4.215
 11
4.641
 20
-19.821
 21
-19.394
  0
LINE
  8
0
 10
4.641
 11
4.058
 20
-19.394
 21
-19.569
  0
LINE
  8
0
 10
4.058
 11
4.05
 20
-19.569
 21
-19.571
  0
LINE
  8
0
 10
4.05
 11
3.902
 20
-19.571
 21
-19.616
  0
LINE
  8
0
 10
3.902
 11
3.243
 20
-19.616
 21
-19.681
  0
LINE
  8
0
 10
3.243
 11
0.001
 20
-19.681
 21
-20.002
  0
LINE
  8
0
 10
0.001
 11
-11.633
 20
-20.002
 21
-20.004
  0
LINE
  8
0
 10
-11.633
 11
-13.998
 20
-20.004
 21
-20.004
  0
LINE
  8
0
 10
-13.998
 11
-13.998
 20
-20.004
 21
-17.004
  0
LINE
  8
0
 10
-13.998
 11
-11.036
 20
-17.004
 21
-16.996
  0
LINE
  8
0
 10
-11.036
 11
-10.431
 20
-16.996
 21
-16.995
  0
LINE
  8
0
 10
-10.431
 11
-10.965
 20
-16.995
 21
-16.708
  0
LINE
  8
0
 10
-10.965
 11
-10.973
 20
-16.708
 21
-16.704
  0
LINE
  8
0
 10
-10.973
 11
-11.111
 20
-16.704
 21
-16.629
  0
LINE
  8
0
 10
-11.111
 11
-11.623
 20
-16.629
 21
-16.209
  0
LINE
  8
0
 10
-11.623
 11
-14.141
 20
-16.209
 21
-14.143
  0
LINE
  8
0
 10
-14.141
 11
-22.368
 20
-14.143
 21
-5.917
  0
LINE
  8
0
 10
-22.368
 11
-24.04
 20
-5.917
 21
-4.244
  0
LINE
  8
0
 10
-16.997
 11
-16.67
 20
0
 21
3.316
  0
LINE
  8
0
 10
-16.67
 11
-15.703
 20
3.316
 21
6.504
  0
LINE
  8
0
 10
-15.703
 11
-14.132
 20
6.504
 21
9.443
  0
LINE
  8
0
 10
-14.132
 11
-12.018
 20
9.443
 21
12.018
  0
LINE
  8
0
 10
-12.018
 11
-9.443
 20
12.018
 21
14.132
  0
LINE
  8
0
 10
-9.443
 11
-6.504
 20
14.132
 21
15.703
  0
LINE
  8
0
 10
-6.504
 11
-3.316
 20
15.703
 21
16.67
  0
LINE
  8
0
 10
-3.316
 11
-1.489
 20
16.67
 21
16.85
  0
LINE
  8
0
 10
-1.489
 11
-3.317
 20
16.85
 21
15.367
  0
LINE
  8
0
 10
-3.317
 11
-5
 20
15.367
 21
13
  0
LINE
  8
0
 10
-5
 11
-7
 20
13
 21
13
  0
LINE
  8
0
 10
-7
 11
-7.975
 20
13
 21
12.904
  0
LINE
  8
0
 10
-7.975
 11
-8.913
 20
12.904
 21
12.619
  0
LINE
  8
0
 10
-8.913
 11
-9.778
 20
12.619
 21
12.157
  0
LINE
  8
0
 10
-9.778
 11
-10.536
 20
12.157
 21
11.536
  0
LINE
  8
0
 10
-10.536
 11
-11.157
 20
11.536
 21
10.778
  0
LINE
  8
0
 10
-11.157
 11
-11.619
 20
10.778
 21
9.913
  0
LINE
  8
0
 10
-11.619
 11
-11.904
 20
9.913
 21
8.975
  0
LINE
  8
0
 10
-11.904
 11
-12
 20
8.975
 21
8
  0
LINE
  8
0
 10
-12
 11
-11.904
 20
8
 21
7.025
  0
LINE
  8
0
 10
-11.904
 11
-11.619
 20
7.025
 21
6.087
  0
LINE
  8
0
 10
-11.619
 11
-11.157
 20
6.087
 21
5.222
  0
LINE
  8
0
 10
-11.157
 11
-10.536
 20
5.222
 21
4.464
  0
LINE
  8
0
 10
-10.536
 11
-9.778
 20
4.464
 21
3.843
  0
LINE
  8
0
 10
-9.778
 11
-8.913
 20
3.843
 21
3.381
  0
LINE
  8
0
 10
-8.913
 11
-4
 20
3.381
 21
0
  0
LINE
  8
0
 10
-4
 11
1
 20
0
 21
0
  0
LINE
  8
0
 10
1
 11
1
 20
0
 21
3
  0
LINE
  8
0
 10
1
 11
-3
 20
3
 21
3
  0
LINE
  8
0
 10
-3
 11
-2.025
 20
3
 21
3.096
  0
LINE
  8
0
 10
-2.025
 11
-1.087
 20
3.096
 21
3.381
  0
LINE
  8
0
 10
-1.087
 11
-0.222
 20
3.381
 21
3.843
  0
LINE
  8
0
 10
-0.222
 11
0.536
 20
3.843
 21
4.464
  0
LINE
  8
0
 10
0.536
 11
1.157
 20
4.464
 21
5.222
  0
LINE
  8
0
 10
1.157
 11
1.619
 20
5.222
 21
6.087
  0
LINE
  8
0
 10
1.619
 11
1.904
 20
6.087
 21
7.025
  0
LINE
  8
0
 10
1.904
 11
2
 20
7.025
 21
8
  0
LINE
  8
0
 10
2
 11
1.904
 20
8
 21
8.975
  0
LINE
  8
0
 10
1.904
 11
1.619
 20
8.975
 21
9.913
  0
LINE
  8
0
 10
1.619
 11
1.157
 20
9.913
 21
10.778
  0
LINE
  8
0
 10
1.157
 11
0.536
 20
10.778
 21
11.536
  0
LINE
  8
0
 10
0.536
 11
-0.222
 20
11.536
 21
12.157
  0
LINE
  8
0
 10
-0.222
 11
-1.087
 20
12.157
 21
12.619
  0
LINE
  8
0
 10
-1.087
 11
-2.025
 20
12.619
 21
12.904
  0
LINE
  8
0
 10
-2.025
 11
-2.512
 20
12.904
 21
12.952
  0
LINE
  8
0
 10
-2.512
 11
-1.94
 20
12.952
 21
13.891
  0
LINE
  8
0
 10
-1.94
 11
1.505
 20
13.891
 21
16.863
  0
LINE
  8
0
 10
1.505
 11
3.316
 20
16.863
 21
16.67
  0
LINE
  8
0
 10
3.316
 11
6.504
 20
16.67
 21
15.703
  0
LINE
  8
0
 10
6.504
 11
9.443
 20
15.703
 21
14.132
  0
LINE
  8
0
 10
9.443
 11
12.018
 20
14.132
 21
12.018
  0
LINE
  8
0
 10
12.018
 11
14.132
 20
12.018
 21
9.443
  0
LINE
  8
0
 10
14.132
 11
15.703
 20
9.443
 21
6.504
  0
LINE
  8
0
 10
15.703
 11
16.67
 20
6.504
 21
3.316
  0
LINE
  8
0
 10
16.67
 11
16.997
 20
3.316
 21
0
  0
LINE
  8
0
 10
16.997
 11
16.67
 20
0
 21
-3.316
  0
LINE
  8
0
 10
16.67
 11
15.703
 20
-3.316
 21
-6.504
  0
LINE
  8
0
 10
15.703
 11
14.132
 20
-6.504
 21
-9.443
  0
LINE
  8
0
 10
14.132
 11
12.018
 20
-9.443
 21
-12.018
  0
LINE
  8
0
 10
12.018
 11
9.443
 20
-12.018
 21
-14.132
  0
LINE
  8
0
 10
9.443
 11
6.504
 20
-14.132
 21
-15.703
  0
LINE
  8
0
 10
6.504
 11
3.316
 20
-15.703
 21
-16.67
  0
LINE
  8
0
 10
3.316
 11
0
 20
-16.67
 21
-16.997
  0
LINE
  8
0
 10
0
 11
-3.316
 20
-16.997
 21
-16.67
  0
LINE
  8
0
 10
-3.316
 11
-6.504
 20
-16.67
 21
-15.703
  0
LINE
  8
0
 10
-6.504
 11
-9.443
 20
-15.703
 21
-14.132
  0
LINE
  8
0
 10
-9.443
 11
-12.018
 20
-14.132
 21
-12.018
  0
LINE
  8
0
 10
-12.018
 11
-14.132
 20
-12.018
 21
-9.443
  0
LINE
  8
0
 10
-14.132
 11
-15.703
 20
-9.443
 21
-6.504
  0
LINE
  8
0
 10
-15.703
 11
-16.67
 20
-6.504
 21
-3.316
  0
LINE
  8
0
 10
-16.67
 11
-16.997
 20
-3.316
 21
0
  0
LINE
  8
0
 10
-7.852
 11
-7.813
 20
8
 21
8.397
  0
LINE
  8
0
 10
-7.813
 11
-7.697
 20
8.397
 21
8.78
  0
LINE
  8
0
 10
-7.697
 11
-7.509
 20
8.78
 21
9.132
  0
LINE
  8
0
 10
-7.509
 11
-7.256
 20
9.132
 21
9.441
  0
LINE
  8
0
 10
-7.256
 11
-6.947
 20
9.441
 21
9.694
  0
LINE
  8
0
 10
-6.947
 11
-6.595
 20
9.694
 21
9.882
  0
LINE
  8
0
 10
-6.595
 11
-6.212
 20
9.882
 21
9.998
  0
LINE
  8
0
 10
-6.212
 11
-5.815
 20
9.998
 21
10.037
  0
LINE
  8
0
 10
-5.815
 11
-4.593
 20
10.037
 21
10.037
  0
LINE
  8
0
 10
-4.593
 11
-3.986
 20
10.037
 21
10.018
  0
LINE
  8
0
 10
-3.986
 11
-3.788
 20
10.018
 21
9.998
  0
LINE
  8
0
 10
-3.788
 11
-3.405
 20
9.998
 21
9.882
  0
LINE
  8
0
 10
-3.405
 11
-3.053
 20
9.882
 21
9.694
  0
LINE
  8
0
 10
-3.053
 11
-2.744
 20
9.694
 21
9.441
  0
LINE
  8
0
 10
-2.744
 11
-2.491
 20
9.441
 21
9.132
  0
LINE
  8
0
 10
-2.491
 11
-2.303
 20
9.132
 21
8.78
  0
LINE
  8
0
 10
-2.303
 11
-2.187
 20
8.78
 21
8.397
  0
LINE
  8
0
 10
-2.187
 11
-2.148
 20
8.397
 21
8
  0
LINE
  8
0
 10
-2.148
 11
-2.187
 20
8
 21
7.603
  0
LINE
  8
0
 10
-2.187
 11
-2.303
 20
7.603
 21
7.22
  0
LINE
  8
0
 10
-2.303
 11
-2.491
 20
7.22
 21
6.868
  0
LINE
  8
0
 10
-2.491
 11
-2.744
 20
6.868
 21
6.559
  0
LINE
  8
0
 10
-2.744
 11
-3.053
 20
6.559
 21
6.306
  0
LINE
  8
0
 10
-3.053
 11
-3.405
 20
6.306
 21
6.118
  0
LINE
  8
0
 10
-3.405
 11
-3.788
 20
6.118
 21
6.002
  0
LINE
  8
0
 10
-3.788
 11
-4.185
 20
6.002
 21
5.963
  0
LINE
  8
0
 10
-4.185
 11
-5.815
 20
5.963
 21
5.963
  0
LINE
  8
0
 10
-5.815
 11
-6.014
 20
5.963
 21
5.982
  0
LINE
  8
0
 10
-6.014
 11
-6.212
 20
5.982
 21
6.002
  0
LINE
  8
0
 10
-6.212
 11
-6.595
 20
6.002
 21
6.118
  0
LINE
  8
0
 10
-6.595
 11
-6.947
 20
6.118
 21
6.306
  0
LINE
  8
0
 10
-6.947
 11
-7.256
 20
6.306
 21
6.559
  0
LINE
  8
0
 10
-7.256
 11
-7.509
 20
6.559
 21
6.868
  0
LINE
  8
0
 10
-7.509
 11
-7.697
 20
6.868
 21
7.22
  0
LINE
  8
0
 10
-7.697
 11
-7.813
 20
7.22
 21
7.603
  0
LINE
  8
0
 10
-7.813
 11
-7.852
 20
7.603
 21
8
  0
ENDSEC
  0
SECTION
  2
OBJECTS
  0
DICTIONARY
  0
ENDSEC
  0
EOF
