  0
SECTION
  2
BLOCKS
  0
ENDSEC
  0
SECTION
  2
ENTITIES
  0
LINE
  8
0
 10
-24.04
 11
-23.939
 20
-4.244
 21
-4.143
  0
LINE
  8
0
 10
-23.939
 11
-22.025
 20
-4.143
 21
-2.229
  0
LINE
  8
0
 10
-22.025
 11
-21.919
 20
-2.229
 21
-2.123
  0
LINE
  8
0
 10
-21.919
 11
-21.358
 20
-2.123
 21
-2.683
  0
LINE
  8
0
 10
-21.358
 11
-19.387
 20
-2.683
 21
-4.656
  0
LINE
  8
0
 10
-19.387
 11
-19.435
 20
-4.656
 21
-4.498
  0
LINE
  8
0
 10
-19.435
 11
-19.444
 20
-4.498
 21
-4.469
  0
LINE
  8
0
 10
-19.444
 11
-19.616
 20
-4.469
 21
-3.902
  0
LINE
  8
0
 10
-19.616
 11
-19.915
 20
-3.902
 21
-0.864
  0
LINE
  8
0
 10
-19.915
 11
-20.001
 20
-0.864
 21
0.001
  0
LINE
  8
0
 10
-20.001
 11
-20.001
 20
0.001
 21
3.104
  0
LINE
  8
0
 10
-20.001
 11
-20.002
 20
3.104
 21
14.002
  0
LINE
  8
0
 10
-20.002
 11
-17.002
 20
14.002
 21
14.002
  0
LINE
  8
0
 10
-17.002
 11
-17
 20
14.002
 21
13.211
  0
LINE
  8
0
 10
-17
 11
-17.001
 20
13.211
 21
10.42
  0
LINE
  8
0
 10
-17.001
 11
-16.924
 20
10.42
 21
10.563
  0
LINE
  8
0
 10
-16.924
 11
-16.91
 20
10.563
 21
10.59
  0
LINE
  8
0
 10
-16.91
 11
-16.629
 20
10.59
 21
11.111
  0
LINE
  8
0
 10
-16.629
 11
-14.696
 20
11.111
 21
13.471
  0
LINE
  8
0
 10
-14.696
 11
-14.146
 20
13.471
 21
14.142
  0
LINE
  8
0
 10
-14.146
 11
-11.952
 20
14.142
 21
16.336
  0
LINE
  8
0
 10
-11.952
 11
-4.249
 20
16.336
 21
24.042
  0
LINE
  8
0
 10
-4.249
 11
-4.148
 20
24.042
 21
23.941
  0
LINE
  8
0
 10
-4.148
 11
-2.234
 20
23.941
 21
22.027
  0
LINE
  8
0
 10
-2.234
 11
-2.128
 20
22.027
 21
21.921
  0
LINE
  8
0
 10
-2.128
 11
-2.686
 20
21.921
 21
21.36
  0
LINE
  8
0
 10
-2.686
 11
-4.659
 20
21.36
 21
19.388
  0
LINE
  8
0
 10
-4.659
 11
-4.502
 20
19.388
 21
19.435
  0
LINE
  8
0
 10
-4.502
 11
-4.472
 20
19.435
 21
19.444
  0
LINE
  8
0
 10
-4.472
 11
-3.902
 20
19.444
 21
19.616
  0
LINE
  8
0
 10
-3.902
 11
-0.864
 20
19.616
 21
19.916
  0
LINE
  8
0
 10
-0.864
 11
0.001
 20
19.916
 21
20.001
  0
LINE
  8
0
 10
0.001
 11
3.103
 20
20.001
 21
20.001
  0
LINE
  8
0
 10
3.103
 11
14.001
 20
20.001
 21
20.002
  0
LINE
  8
0
 10
14.001
 11
14.001
 20
20.002
 21
17.002
  0
LINE
  8
0
 10
14.001
 11
13.207
 20
17.002
 21
17.002
  0
LINE
  8
0
 10
13.207
 11
10.42
 20
17.002
 21
17.001
  0
LINE
  8
0
 10
10.42
 11
10.567
 20
17.001
 21
16.922
  0
LINE
  8
0
 10
10.567
 11
10.594
 20
16.922
 21
16.907
  0
LINE
  8
0
 10
10.594
 11
11.111
 20
16.907
 21
16.629
  0
LINE
  8
0
 10
11.111
 11
13.472
 20
16.629
 21
14.692
  0
LINE
  8
0
 10
13.472
 11
14.144
 20
14.692
 21
14.141
  0
LINE
  8
0
 10
14.144
 11
16.338
 20
14.141
 21
11.947
  0
LINE
  8
0
 10
16.338
 11
24.046
 20
11.947
 21
4.24
  0
LINE
  8
0
 10
24.046
 11
23.945
 20
4.24
 21
4.139
  0
LINE
  8
0
 10
23.945
 11
22.03
 20
4.139
 21
2.225
  0
LINE
  8
0
 10
22.03
 11
21.924
 20
2.225
 21
2.119
  0
LINE
  8
0
 10
21.924
 11
21.362
 20
2.119
 21
2.681
  0
LINE
  8
0
 10
21.362
 11
19.387
 20
2.681
 21
4.665
  0
LINE
  8
0
 10
19.387
 11
19.434
 20
4.665
 21
4.505
  0
LINE
  8
0
 10
19.434
 11
19.443
 20
4.505
 21
4.476
  0
LINE
  8
0
 10
19.443
 11
19.616
 20
4.476
 21
3.902
  0
LINE
  8
0
 10
19.616
 11
20
 20
3.902
 21
0
  0
LINE
  8
0
 10
20
 11
20
 20
0
 21
-14
  0
LINE
  8
0
 10
20
 11
17
 20
-14
 21
-14
  0
LINE
  8
0
 10
17
 11
16.996
 20
-14
 21
-10.428
  0
LINE
  8
0
 10
16.996
 11
16.904
 20
-10.428
 21
-10.599
  0
LINE
  8
0
 10
16.904
 11
16.9
 20
-10.599
 21
-10.607
  0
LINE
  8
0
 10
16.9
 11
16.63
 20
-10.607
 21
-11.111
  0
LINE
  8
0
 10
16.63
 11
14.693
 20
-11.111
 21
-13.472
  0
LINE
  8
0
 10
14.693
 11
14.141
 20
-13.472
 21
-14.144
  0
LINE
  8
0
 10
14.141
 11
11.947
 20
-14.144
 21
-16.338
  0
LINE
  8
0
 10
11.947
 11
4.241
 20
-16.338
 21
-24.046
  0
LINE
  8
0
 10
4.241
 11
4.134
 20
-24.046
 21
-23.94
  0
LINE
  8
0
 10
4.134
 11
2.22
 20
-23.94
 21
-22.025
  0
LINE
  8
0
 10
2.22
 11
2.119
 20
-22.025
 21
-21.924
  0
LINE
  8
0
 10
2.119
 11
2.678
 20
-21.924
 21
-21.364
  0
LINE
  8
0
 10
2.678
 11
4.641
 20
-21.364
 21
-19.394
  0
LINE
  8
0
 10
4.641
 11
4.486
 20
-19.394
 21
-19.44
  0
LINE
  8
0
 10
4.486
 11
4.457
 20
-19.44
 21
-19.449
  0
LINE
  8
0
 10
4.457
 11
3.902
 20
-19.449
 21
-19.616
  0
LINE
  8
0
 10
3.902
 11
0.865
 20
-19.616
 21
-19.916
  0
LINE
  8
0
 10
0.865
 11
0.001
 20
-19.916
 21
-20.002
  0
LINE
  8
0
 10
0.001
 11
-3.101
 20
-20.002
 21
-20.002
  0
LINE
  8
0
 10
-3.101
 11
-13.998
 20
-20.002
 21
-20.004
  0
LINE
  8
0
 10
-13.998
 11
-13.998
 20
-20.004
 21
-17.004
  0
LINE
  8
0
 10
-13.998
 11
-13.208
 20
-17.004
 21
-17.002
  0
LINE
  8
0
 10
-13.208
 11
-10.422
 20
-17.002
 21
-17
  0
LINE
  8
0
 10
-10.422
 11
-10.564
 20
-17
 21
-16.924
  0
LINE
  8
0
 10
-10.564
 11
-10.591
 20
-16.924
 21
-16.909
  0
LINE
  8
0
 10
-10.591
 11
-11.111
 20
-16.909
 21
-16.629
  0
LINE
  8
0
 10
-11.111
 11
-13.47
 20
-16.629
 21
-14.694
  0
LINE
  8
0
 10
-13.47
 11
-14.141
 20
-14.694
 21
-14.143
  0
LINE
  8
0
 10
-14.141
 11
-16.335
 20
-14.143
 21
-11.949
  0
LINE
  8
0
 10
-16.335
 11
-24.04
 20
-11.949
 21
-4.244
  0
LINE
  8
0
 10
-18.985
 11
-18.62
 20
0
 21
3.704
  0
LINE
  8
0
 10
-18.62
 11
-17.54
 20
3.704
 21
7.265
  0
LINE
  8
0
 10
-17.54
 11
-16.616
 20
7.265
 21
8.993
  0
LINE
  8
0
 10
-16.616
 11
-15.785
 20
8.993
 21
10.547
  0
LINE
  8
0
 10
-15.785
 11
-14.543
 20
10.547
 21
12.062
  0
LINE
  8
0
 10
-14.543
 11
-13.424
 20
12.062
 21
13.424
  0
LINE
  8
0
 10
-13.424
 11
-10.547
 20
13.424
 21
15.785
  0
LINE
  8
0
 10
-10.547
 11
-7.265
 20
15.785
 21
17.54
  0
LINE
  8
0
 10
-7.265
 11
-3.704
 20
17.54
 21
18.62
  0
LINE
  8
0
 10
-3.704
 11
0
 20
18.62
 21
18.985
  0
LINE
  8
0
 10
0
 11
3.704
 20
18.985
 21
18.62
  0
LINE
  8
0
 10
3.704
 11
7.265
 20
18.62
 21
17.54
  0
LINE
  8
0
 10
7.265
 11
10.547
 20
17.54
 21
15.785
  0
LINE
  8
0
 10
10.547
 11
13.424
 20
15.785
 21
13.424
  0
LINE
  8
0
 10
13.424
 11
15.785
 20
13.424
 21
10.547
  0
LINE
  8
0
 10
15.785
 11
17.54
 20
10.547
 21
7.265
  0
LINE
  8
0
 10
17.54
 11
18.62
 20
7.265
 21
3.704
  0
LINE
  8
0
 10
18.62
 11
18.985
 20
3.704
 21
0
  0
LINE
  8
0
 10
18.985
 11
18.62
 20
0
 21
-3.704
  0
LINE
  8
0
 10
18.62
 11
17.54
 20
-3.704
 21
-7.265
  0
LINE
  8
0
 10
17.54
 11
15.785
 20
-7.265
 21
-10.547
  0
LINE
  8
0
 10
15.785
 11
13.424
 20
-10.547
 21
-13.424
  0
LINE
  8
0
 10
13.424
 11
11.91
 20
-13.424
 21
-14.667
  0
LINE
  8
0
 10
11.91
 11
10.547
 20
-14.667
 21
-15.785
  0
LINE
  8
0
 10
10.547
 11
8.82
 20
-15.785
 21
-16.709
  0
LINE
  8
0
 10
8.82
 11
7.265
 20
-16.709
 21
-17.54
  0
LINE
  8
0
 10
7.265
 11
3.704
 20
-17.54
 21
-18.62
  0
LINE
  8
0
 10
3.704
 11
0
 20
-18.62
 21
-18.985
  0
LINE
  8
0
 10
0
 11
-3.704
 20
-18.985
 21
-18.62
  0
LINE
  8
0
 10
-3.704
 11
-7.265
 20
-18.62
 21
-17.54
  0
LINE
  8
0
 10
-7.265
 11
-10.547
 20
-17.54
 21
-15.785
  0
LINE
  8
0
 10
-10.547
 11
-13.424
 20
-15.785
 21
-13.424
  0
LINE
  8
0
 10
-13.424
 11
-15.785
 20
-13.424
 21
-10.547
  0
LINE
  8
0
 10
-15.785
 11
-17.54
 20
-10.547
 21
-7.265
  0
LINE
  8
0
 10
-17.54
 11
-18.62
 20
-7.265
 21
-3.704
  0
LINE
  8
0
 10
-18.62
 11
-18.985
 20
-3.704
 21
0
  0
LINE
  8
0
 10
-16.997
 11
-16.67
 20
0
 21
3.316
  0
LINE
  8
0
 10
-16.67
 11
-15.703
 20
3.316
 21
6.504
  0
LINE
  8
0
 10
-15.703
 11
-14.132
 20
6.504
 21
9.443
  0
LINE
  8
0
 10
-14.132
 11
-12.018
 20
9.443
 21
12.018
  0
LINE
  8
0
 10
-12.018
 11
-9.443
 20
12.018
 21
14.132
  0
LINE
  8
0
 10
-9.443
 11
-6.504
 20
14.132
 21
15.703
  0
LINE
  8
0
 10
-6.504
 11
-3.316
 20
15.703
 21
16.67
  0
LINE
  8
0
 10
-3.316
 11
-1.489
 20
16.67
 21
16.85
  0
LINE
  8
0
 10
-1.489
 11
-3.317
 20
16.85
 21
15.367
  0
LINE
  8
0
 10
-3.317
 11
-5
 20
15.367
 21
13
  0
LINE
  8
0
 10
-5
 11
-7
 20
13
 21
13
  0
LINE
  8
0
 10
-7
 11
-7.975
 20
13
 21
12.904
  0
LINE
  8
0
 10
-7.975
 11
-8.913
 20
12.904
 21
12.619
  0
LINE
  8
0
 10
-8.913
 11
-9.778
 20
12.619
 21
12.157
  0
LINE
  8
0
 10
-9.778
 11
-10.536
 20
12.157
 21
11.536
  0
LINE
  8
0
 10
-10.536
 11
-11.157
 20
11.536
 21
10.778
  0
LINE
  8
0
 10
-11.157
 11
-11.619
 20
10.778
 21
9.913
  0
LINE
  8
0
 10
-11.619
 11
-11.904
 20
9.913
 21
8.975
  0
LINE
  8
0
 10
-11.904
 11
-12
 20
8.975
 21
8
  0
LINE
  8
0
 10
-12
 11
-11.904
 20
8
 21
7.025
  0
LINE
  8
0
 10
-11.904
 11
-11.619
 20
7.025
 21
6.087
  0
LINE
  8
0
 10
-11.619
 11
-11.157
 20
6.087
 21
5.222
  0
LINE
  8
0
 10
-11.157
 11
-10.536
 20
5.222
 21
4.464
  0
LINE
  8
0
 10
-10.536
 11
-9.778
 20
4.464
 21
3.843
  0
LINE
  8
0
 10
-9.778
 11
-8.913
 20
3.843
 21
3.381
  0
LINE
  8
0
 10
-8.913
 11
-4
 20
3.381
 21
0
  0
LINE
  8
0
 10
-4
 11
1
 20
0
 21
0
  0
LINE
  8
0
 10
1
 11
1
 20
0
 21
3
  0
LINE
  8
0
 10
1
 11
-3
 20
3
 21
3
  0
LINE
  8
0
 10
-3
 11
-2.025
 20
3
 21
3.096
  0
LINE
  8
0
 10
-2.025
 11
-1.087
 20
3.096
 21
3.381
  0
LINE
  8
0
 10
-1.087
 11
-0.222
 20
3.381
 21
3.843
  0
LINE
  8
0
 10
-0.222
 11
0.536
 20
3.843
 21
4.464
  0
LINE
  8
0
 10
0.536
 11
1.157
 20
4.464
 21
5.222
  0
LINE
  8
0
 10
1.157
 11
1.619
 20
5.222
 21
6.087
  0
LINE
  8
0
 10
1.619
 11
1.904
 20
6.087
 21
7.025
  0
LINE
  8
0
 10
1.904
 11
2
 20
7.025
 21
8
  0
LINE
  8
0
 10
2
 11
1.904
 20
8
 21
8.975
  0
LINE
  8
0
 10
1.904
 11
1.619
 20
8.975
 21
9.913
  0
LINE
  8
0
 10
1.619
 11
1.157
 20
9.913
 21
10.778
  0
LINE
  8
0
 10
1.157
 11
0.536
 20
10.778
 21
11.536
  0
LINE
  8
0
 10
0.536
 11
-0.222
 20
11.536
 21
12.157
  0
LINE
  8
0
 10
-0.222
 11
-1.087
 20
12.157
 21
12.619
  0
LINE
  8
0
 10
-1.087
 11
-2.025
 20
12.619
 21
12.904
  0
LINE
  8
0
 10
-2.025
 11
-2.512
 20
12.904
 21
12.952
  0
LINE
  8
0
 10
-2.512
 11
-1.94
 20
12.952
 21
13.891
  0
LINE
  8
0
 10
-1.94
 11
1.505
 20
13.891
 21
16.863
  0
LINE
  8
0
 10
1.505
 11
3.316
 20
16.863
 21
16.67
  0
LINE
  8
0
 10
3.316
 11
6.504
 20
16.67
 21
15.703
  0
LINE
  8
0
 10
6.504
 11
9.443
 20
15.703
 21
14.132
  0
LINE
  8
0
 10
9.443
 11
12.018
 20
14.132
 21
12.018
  0
LINE
  8
0
 10
12.018
 11
14.132
 20
12.018
 21
9.443
  0
LINE
  8
0
 10
14.132
 11
15.703
 20
9.443
 21
6.504
  0
LINE
  8
0
 10
15.703
 11
16.67
 20
6.504
 21
3.316
  0
LINE
  8
0
 10
16.67
 11
16.997
 20
3.316
 21
0
  0
LINE
  8
0
 10
16.997
 11
16.67
 20
0
 21
-3.316
  0
LINE
  8
0
 10
16.67
 11
15.703
 20
-3.316
 21
-6.504
  0
LINE
  8
0
 10
15.703
 11
14.132
 20
-6.504
 21
-9.443
  0
LINE
  8
0
 10
14.132
 11
12.018
 20
-9.443
 21
-12.018
  0
LINE
  8
0
 10
12.018
 11
9.443
 20
-12.018
 21
-14.132
  0
LINE
  8
0
 10
9.443
 11
6.504
 20
-14.132
 21
-15.703
  0
LINE
  8
0
 10
6.504
 11
3.316
 20
-15.703
 21
-16.67
  0
LINE
  8
0
 10
3.316
 11
0
 20
-16.67
 21
-16.997
  0
LINE
  8
0
 10
0
 11
-3.316
 20
-16.997
 21
-16.67
  0
LINE
  8
0
 10
-3.316
 11
-6.504
 20
-16.67
 21
-15.703
  0
LINE
  8
0
 10
-6.504
 11
-9.443
 20
-15.703
 21
-14.132
  0
LINE
  8
0
 10
-9.443
 11
-12.018
 20
-14.132
 21
-12.018
  0
LINE
  8
0
 10
-12.018
 11
-14.132
 20
-12.018
 21
-9.443
  0
LINE
  8
0
 10
-14.132
 11
-15.703
 20
-9.443
 21
-6.504
  0
LINE
  8
0
 10
-15.703
 11
-16.67
 20
-6.504
 21
-3.316
  0
LINE
  8
0
 10
-16.67
 11
-16.997
 20
-3.316
 21
0
  0
LINE
  8
0
 10
-17.989
 11
-17.643
 20
0
 21
3.51
  0
LINE
  8
0
 10
-17.643
 11
-16.62
 20
3.51
 21
6.884
  0
LINE
  8
0
 10
-16.62
 11
-14.957
 20
6.884
 21
9.994
  0
LINE
  8
0
 10
-14.957
 11
-12.72
 20
9.994
 21
12.72
  0
LINE
  8
0
 10
-12.72
 11
-9.994
 20
12.72
 21
14.957
  0
LINE
  8
0
 10
-9.994
 11
-6.884
 20
14.957
 21
16.62
  0
LINE
  8
0
 10
-6.884
 11
-3.509
 20
16.62
 21
17.643
  0
LINE
  8
0
 10
-3.509
 11
0
 20
17.643
 21
17.989
  0
LINE
  8
0
 10
0
 11
1.377
 20
17.989
 21
17.853
  0
LINE
  8
0
 10
1.377
 11
0.285
 20
17.853
 21
17.585
  0
LINE
  8
0
 10
0.285
 11
-0.569
 20
17.585
 21
16.941
  0
LINE
  8
0
 10
-0.569
 11
-2.993
 20
16.941
 21
14.994
  0
LINE
  8
0
 10
-2.993
 11
-4.348
 20
14.994
 21
13
  0
LINE
  8
0
 10
-4.348
 11
-5
 20
13
 21
12
  0
LINE
  8
0
 10
-5
 11
-6.6
 20
12
 21
12
  0
LINE
  8
0
 10
-6.6
 11
-7.38
 20
12
 21
11.923
  0
LINE
  8
0
 10
-7.38
 11
-8.131
 20
11.923
 21
11.696
  0
LINE
  8
0
 10
-8.131
 11
-8.822
 20
11.696
 21
11.326
  0
LINE
  8
0
 10
-8.822
 11
-9.428
 20
11.326
 21
10.828
  0
LINE
  8
0
 10
-9.428
 11
-9.926
 20
10.828
 21
10.222
  0
LINE
  8
0
 10
-9.926
 11
-10.296
 20
10.222
 21
9.531
  0
LINE
  8
0
 10
-10.296
 11
-10.523
 20
9.531
 21
8.78
  0
LINE
  8
0
 10
-10.523
 11
-10.6
 20
8.78
 21
8
  0
LINE
  8
0
 10
-10.6
 11
-10.523
 20
8
 21
7.22
  0
LINE
  8
0
 10
-10.523
 11
-10.296
 20
7.22
 21
6.469
  0
LINE
  8
0
 10
-10.296
 11
-9.926
 20
6.469
 21
5.778
  0
LINE
  8
0
 10
-9.926
 11
-9.428
 20
5.778
 21
5.172
  0
LINE
  8
0
 10
-9.428
 11
-9.018
 20
5.172
 21
4.504
  0
LINE
  8
0
 10
-9.018
 11
-8.527
 20
4.504
 21
3.837
  0
LINE
  8
0
 10
-8.527
 11
-7.599
 20
3.837
 21
3.096
  0
LINE
  8
0
 10
-7.599
 11
-4
 20
3.096
 21
1
  0
LINE
  8
0
 10
-4
 11
0
 20
1
 21
1
  0
LINE
  8
0
 10
0
 11
0
 20
1
 21
2
  0
LINE
  8
0
 10
0
 11
-4
 20
2
 21
2
  0
LINE
  8
0
 10
-4
 11
-5.448
 20
2
 21
3
  0
LINE
  8
0
 10
-5.448
 11
-6.669
 20
3
 21
3.819
  0
LINE
  8
0
 10
-6.669
 11
-6.99
 20
3.819
 21
4.038
  0
LINE
  8
0
 10
-6.99
 11
-6.6
 20
4.038
 21
4
  0
LINE
  8
0
 10
-6.6
 11
-3.4
 20
4
 21
4
  0
LINE
  8
0
 10
-3.4
 11
-2.62
 20
4
 21
4.077
  0
LINE
  8
0
 10
-2.62
 11
-1.869
 20
4.077
 21
4.304
  0
LINE
  8
0
 10
-1.869
 11
-1.178
 20
4.304
 21
4.674
  0
LINE
  8
0
 10
-1.178
 11
-0.572
 20
4.674
 21
5.172
  0
LINE
  8
0
 10
-0.572
 11
-0.074
 20
5.172
 21
5.778
  0
LINE
  8
0
 10
-0.074
 11
0.296
 20
5.778
 21
6.469
  0
LINE
  8
0
 10
0.296
 11
0.523
 20
6.469
 21
7.22
  0
LINE
  8
0
 10
0.523
 11
0.6
 20
7.22
 21
8
  0
LINE
  8
0
 10
0.6
 11
0.523
 20
8
 21
8.78
  0
LINE
  8
0
 10
0.523
 11
0.296
 20
8.78
 21
9.531
  0
LINE
  8
0
 10
0.296
 11
-0.074
 20
9.531
 21
10.222
  0
LINE
  8
0
 10
-0.074
 11
-0.572
 20
10.222
 21
10.828
  0
LINE
  8
0
 10
-0.572
 11
-1.178
 20
10.828
 21
11.326
  0
LINE
  8
0
 10
-1.178
 11
-1.869
 20
11.326
 21
11.696
  0
LINE
  8
0
 10
-1.869
 11
-2.62
 20
11.696
 21
11.923
  0
LINE
  8
0
 10
-2.62
 11
-3.01
 20
11.923
 21
11.962
  0
LINE
  8
0
 10
-3.01
 11
-3.784
 20
11.962
 21
12
  0
LINE
  8
0
 10
-3.784
 11
-3.172
 20
12
 21
13
  0
LINE
  8
0
 10
-3.172
 11
-2.356
 20
13
 21
14.28
  0
LINE
  8
0
 10
-2.356
 11
0.753
 20
14.28
 21
16.944
  0
LINE
  8
0
 10
0.753
 11
3.509
 20
16.944
 21
17.643
  0
LINE
  8
0
 10
3.509
 11
6.884
 20
17.643
 21
16.62
  0
LINE
  8
0
 10
6.884
 11
9.994
 20
16.62
 21
14.957
  0
LINE
  8
0
 10
9.994
 11
12.72
 20
14.957
 21
12.72
  0
LINE
  8
0
 10
12.72
 11
14.957
 20
12.72
 21
9.994
  0
LINE
  8
0
 10
14.957
 11
16.62
 20
9.994
 21
6.884
  0
LINE
  8
0
 10
16.62
 11
17.643
 20
6.884
 21
3.51
  0
LINE
  8
0
 10
17.643
 11
17.989
 20
3.51
 21
0
  0
LINE
  8
0
 10
17.989
 11
17.643
 20
0
 21
-3.509
  0
LINE
  8
0
 10
17.643
 11
16.62
 20
-3.509
 21
-6.884
  0
LINE
  8
0
 10
16.62
 11
14.957
 20
-6.884
 21
-9.994
  0
LINE
  8
0
 10
14.957
 11
12.72
 20
-9.994
 21
-12.72
  0
LINE
  8
0
 10
12.72
 11
9.994
 20
-12.72
 21
-14.957
  0
LINE
  8
0
 10
9.994
 11
6.884
 20
-14.957
 21
-16.62
  0
LINE
  8
0
 10
6.884
 11
3.509
 20
-16.62
 21
-17.643
  0
LINE
  8
0
 10
3.509
 11
0
 20
-17.643
 21
-17.989
  0
LINE
  8
0
 10
0
 11
-3.51
 20
-17.989
 21
-17.643
  0
LINE
  8
0
 10
-3.51
 11
-6.884
 20
-17.643
 21
-16.62
  0
LINE
  8
0
 10
-6.884
 11
-9.994
 20
-16.62
 21
-14.957
  0
LINE
  8
0
 10
-9.994
 11
-12.72
 20
-14.957
 21
-12.72
  0
LINE
  8
0
 10
-12.72
 11
-14.957
 20
-12.72
 21
-9.994
  0
LINE
  8
0
 10
-14.957
 11
-16.62
 20
-9.994
 21
-6.884
  0
LINE
  8
0
 10
-16.62
 11
-17.643
 20
-6.884
 21
-3.509
  0
LINE
  8
0
 10
-17.643
 11
-17.989
 20
-3.509
 21
0
  0
LINE
  8
0
 10
-9.183
 11
-9.125
 20
8
 21
8.583
  0
LINE
  8
0
 10
-9.125
 11
-8.955
 20
8.583
 21
9.143
  0
LINE
  8
0
 10
-8.955
 11
-8.679
 20
9.143
 21
9.66
  0
LINE
  8
0
 10
-8.679
 11
-8.308
 20
9.66
 21
10.113
  0
LINE
  8
0
 10
-8.308
 11
-7.855
 20
10.113
 21
10.484
  0
LINE
  8
0
 10
-7.855
 11
-7.338
 20
10.484
 21
10.76
  0
LINE
  8
0
 10
-7.338
 11
-6.778
 20
10.76
 21
10.93
  0
LINE
  8
0
 10
-6.778
 11
-6.195
 20
10.93
 21
10.988
  0
LINE
  8
0
 10
-6.195
 11
-4.402
 20
10.988
 21
10.988
  0
LINE
  8
0
 10
-4.402
 11
-3.514
 20
10.988
 21
10.959
  0
LINE
  8
0
 10
-3.514
 11
-3.222
 20
10.959
 21
10.93
  0
LINE
  8
0
 10
-3.222
 11
-2.662
 20
10.93
 21
10.76
  0
LINE
  8
0
 10
-2.662
 11
-2.145
 20
10.76
 21
10.484
  0
LINE
  8
0
 10
-2.145
 11
-1.692
 20
10.484
 21
10.113
  0
LINE
  8
0
 10
-1.692
 11
-1.321
 20
10.113
 21
9.66
  0
LINE
  8
0
 10
-1.321
 11
-1.045
 20
9.66
 21
9.143
  0
LINE
  8
0
 10
-1.045
 11
-0.875
 20
9.143
 21
8.583
  0
LINE
  8
0
 10
-0.875
 11
-0.817
 20
8.583
 21
8
  0
LINE
  8
0
 10
-0.817
 11
-0.875
 20
8
 21
7.417
  0
LINE
  8
0
 10
-0.875
 11
-1.045
 20
7.417
 21
6.857
  0
LINE
  8
0
 10
-1.045
 11
-1.321
 20
6.857
 21
6.34
  0
LINE
  8
0
 10
-1.321
 11
-1.692
 20
6.34
 21
5.887
  0
LINE
  8
0
 10
-1.692
 11
-2.145
 20
5.887
 21
5.516
  0
LINE
  8
0
 10
-2.145
 11
-2.39
 20
5.516
 21
5.385
  0
LINE
  8
0
 10
-2.39
 11
-2.662
 20
5.385
 21
5.24
  0
LINE
  8
0
 10
-2.662
 11
-2.927
 20
5.24
 21
5.159
  0
LINE
  8
0
 10
-2.927
 11
-3.222
 20
5.159
 21
5.07
  0
LINE
  8
0
 10
-3.222
 11
-3.805
 20
5.07
 21
5.012
  0
LINE
  8
0
 10
-3.805
 11
-6.195
 20
5.012
 21
5.012
  0
LINE
  8
0
 10
-6.195
 11
-6.778
 20
5.012
 21
5.07
  0
LINE
  8
0
 10
-6.778
 11
-7.043
 20
5.07
 21
5.15
  0
LINE
  8
0
 10
-7.043
 11
-7.338
 20
5.15
 21
5.24
  0
LINE
  8
0
 10
-7.338
 11
-7.583
 20
5.24
 21
5.371
  0
LINE
  8
0
 10
-7.583
 11
-7.855
 20
5.371
 21
5.516
  0
LINE
  8
0
 10
-7.855
 11
-8.069
 20
5.516
 21
5.692
  0
LINE
  8
0
 10
-8.069
 11
-8.308
 20
5.692
 21
5.887
  0
LINE
  8
0
 10
-8.308
 11
-8.484
 20
5.887
 21
6.102
  0
LINE
  8
0
 10
-8.484
 11
-8.679
 20
6.102
 21
6.34
  0
LINE
  8
0
 10
-8.679
 11
-8.955
 20
6.34
 21
6.857
  0
LINE
  8
0
 10
-8.955
 11
-9.125
 20
6.857
 21
7.417
  0
LINE
  8
0
 10
-9.125
 11
-9.183
 20
7.417
 21
8
  0
LINE
  8
0
 10
-7.852
 11
-7.813
 20
8
 21
8.397
  0
LINE
  8
0
 10
-7.813
 11
-7.697
 20
8.397
 21
8.78
  0
LINE
  8
0
 10
-7.697
 11
-7.509
 20
8.78
 21
9.132
  0
LINE
  8
0
 10
-7.509
 11
-7.256
 20
9.132
 21
9.441
  0
LINE
  8
0
 10
-7.256
 11
-6.947
 20
9.441
 21
9.694
  0
LINE
  8
0
 10
-6.947
 11
-6.595
 20
9.694
 21
9.882
  0
LINE
  8
0
 10
-6.595
 11
-6.212
 20
9.882
 21
9.998
  0
LINE
  8
0
 10
-6.212
 11
-5.815
 20
9.998
 21
10.037
  0
LINE
  8
0
 10
-5.815
 11
-4.593
 20
10.037
 21
10.037
  0
LINE
  8
0
 10
-4.593
 11
-3.986
 20
10.037
 21
10.018
  0
LINE
  8
0
 10
-3.986
 11
-3.788
 20
10.018
 21
9.998
  0
LINE
  8
0
 10
-3.788
 11
-3.405
 20
9.998
 21
9.882
  0
LINE
  8
0
 10
-3.405
 11
-3.053
 20
9.882
 21
9.694
  0
LINE
  8
0
 10
-3.053
 11
-2.744
 20
9.694
 21
9.441
  0
LINE
  8
0
 10
-2.744
 11
-2.491
 20
9.441
 21
9.132
  0
LINE
  8
0
 10
-2.491
 11
-2.303
 20
9.132
 21
8.78
  0
LINE
  8
0
 10
-2.303
 11
-2.187
 20
8.78
 21
8.397
  0
LINE
  8
0
 10
-2.187
 11
-2.148
 20
8.397
 21
8
  0
LINE
  8
0
 10
-2.148
 11
-2.187
 20
8
 21
7.603
  0
LINE
  8
0
 10
-2.187
 11
-2.303
 20
7.603
 21
7.22
  0
LINE
  8
0
 10
-2.303
 11
-2.491
 20
7.22
 21
6.868
  0
LINE
  8
0
 10
-2.491
 11
-2.744
 20
6.868
 21
6.559
  0
LINE
  8
0
 10
-2.744
 11
-3.053
 20
6.559
 21
6.306
  0
LINE
  8
0
 10
-3.053
 11
-3.405
 20
6.306
 21
6.118
  0
LINE
  8
0
 10
-3.405
 11
-3.788
 20
6.118
 21
6.002
  0
LINE
  8
0
 10
-3.788
 11
-4.185
 20
6.002
 21
5.963
  0
LINE
  8
0
 10
-4.185
 11
-5.815
 20
5.963
 21
5.963
  0
LINE
  8
0
 10
-5.815
 11
-6.014
 20
5.963
 21
5.982
  0
LINE
  8
0
 10
-6.014
 11
-6.212
 20
5.982
 21
6.002
  0
LINE
  8
0
 10
-6.212
 11
-6.595
 20
6.002
 21
6.118
  0
LINE
  8
0
 10
-6.595
 11
-6.947
 20
6.118
 21
6.306
  0
LINE
  8
0
 10
-6.947
 11
-7.256
 20
6.306
 21
6.559
  0
LINE
  8
0
 10
-7.256
 11
-7.509
 20
6.559
 21
6.868
  0
LINE
  8
0
 10
-7.509
 11
-7.697
 20
6.868
 21
7.22
  0
LINE
  8
0
 10
-7.697
 11
-7.813
 20
7.22
 21
7.603
  0
LINE
  8
0
 10
-7.813
 11
-7.852
 20
7.603
 21
8
  0
ENDSEC
  0
SECTION
  2
OBJECTS
  0
DICTIONARY
  0
ENDSEC
  0
EOF
