<?xml version="1.0" encoding="UTF-8" standalone="no"?>
<!-- Created with Inkscape (http://www.inkscape.org/) -->

<svg
   xmlns:dc="http://purl.org/dc/elements/1.1/"
   xmlns:cc="http://creativecommons.org/ns#"
   xmlns:rdf="http://www.w3.org/1999/02/22-rdf-syntax-ns#"
   xmlns:svg="http://www.w3.org/2000/svg"
   xmlns="http://www.w3.org/2000/svg"
   xmlns:sodipodi="http://sodipodi.sourceforge.net/DTD/sodipodi-0.dtd"
   xmlns:inkscape="http://www.inkscape.org/namespaces/inkscape"
   width="744.09448819"
   height="1052.3622047"
   id="svg2"
   version="1.1"
   inkscape:version="0.48.3.1 r9886"
   sodipodi:docname="New document 1">
  <defs
     id="defs4">
    <pattern
       id="Hatch"
       x="0"
       y="0"
       patternUnits="userSpaceOnUse"
       width="8"
       height="8">
      <path
         id="path3014"
         d="M8 4 l-4,4"
         stroke-width="0.25"
         stroke="#000000"
         linecap="square" />
      <path
         id="path3016"
         d="M6 2 l-4,4"
         stroke-width="0.25"
         stroke="#000000"
         linecap="square" />
      <path
         id="path3018"
         d="M4 0 l-4,4"
         stroke-width="0.25"
         stroke="#000000"
         linecap="square" />
    </pattern>
    <marker
       orient="auto"
       id="DistanceX"
       style="overflow:visible"
       refX="0.0"
       refY="0.0">
      <path
         id="path3011"
         d="M 3,-3 L -3,3 M 0,-5 L  0,5"
         style="stroke:#000000; stroke-width:0.5" />
    </marker>
  </defs>
  <sodipodi:namedview
     id="base"
     pagecolor="#ffffff"
     bordercolor="#666666"
     borderopacity="1.0"
     inkscape:pageopacity="0.0"
     inkscape:pageshadow="2"
     inkscape:zoom="0.98994949"
     inkscape:cx="400.13978"
     inkscape:cy="645.30902"
     inkscape:document-units="px"
     inkscape:current-layer="layer1"
     showgrid="false"
     inkscape:window-width="959"
     inkscape:window-height="576"
     inkscape:window-x="65"
     inkscape:window-y="24"
     inkscape:window-maximized="1" />
  <metadata
     id="metadata7">
    <rdf:RDF>
      <cc:Work
         rdf:about="">
        <dc:format>image/svg+xml</dc:format>
        <dc:type
           rdf:resource="http://purl.org/dc/dcmitype/StillImage" />
        <dc:title></dc:title>
      </cc:Work>
    </rdf:RDF>
  </metadata>
  <g
     inkscape:label="Layer 1"
     inkscape:groupmode="layer"
     id="layer1">
    <path
       id="path3724"
       style="fill:#b4783c;stroke:#000000;stroke-width:1;fill-opacity:1;stroke-miterlimit:4;stroke-dasharray:none"
       d="m 319.47875,232.4809 5.24842,1.58913 4.82362,2.57648 4.23437,3.46675 3.46698,4.23444 2.57625,4.82384 1.5896,5.24847 0.53443,5.43992 -0.53443,5.4403 -1.5896,5.24848 -2.57625,4.82383 -3.46698,4.23444 -4.23437,3.46676 -4.82362,2.57647 -5.24842,1.58951 -5.44027,0.53448 -22.33665,0 -2.72698,-0.25989 -2.71329,-0.27498 -5.24842,-1.58912 -4.82362,-2.57647 -4.23437,-3.46676 -3.46698,-4.23444 -2.57625,-4.82383 -1.5896,-5.24848 -0.53443,-5.4403 0.53443,-5.43992 1.5896,-5.24847 2.57625,-4.82384 3.46698,-4.23444 4.23437,-3.46675 4.82362,-2.57648 5.24842,-1.58951 5.44027,-0.53448 16.74564,0 8.31799,0.25989 z m -73.93017,27.37903 0.7948,7.98932 2.32959,7.67373 3.78215,7.08473 2.67218,3.2614 2.41181,2.94659 3.27512,2.672 2.93254,2.41172 3.72734,1.98708 3.35736,1.79526 4.04251,1.23332 3.63142,1.09603 7.98912,0.79514 32.75127,0 7.98912,-0.79514 4.04252,-1.2194 3.63142,-1.10995 3.72734,-1.98708 3.35735,-1.79526 6.20766,-5.08372 5.08399,-6.20799 3.78215,-7.08473 2.32959,-7.67373 0.7948,-7.98932 -0.7948,-7.98893 -2.32959,-7.67413 -3.78215,-7.08434 -5.08399,-6.20799 -6.20766,-5.08372 -7.08469,-3.78234 -7.67394,-2.32935 -4.00141,-0.39757 -12.16868,-0.39757 -24.5703,0 -7.98912,0.79514 -7.67393,2.32935 -7.0847,3.78234 -6.20766,5.08372 -5.08399,6.20799 -3.78215,7.08434 -2.32959,7.67413 z m -115.93128,61.52873 14.01864,-46.2354 22.78886,-42.61782 30.65464,-37.35581 37.35563,-30.6545 42.61776,-22.78885 46.24918,-14.01863 48.08545,-4.74142 18.86967,1.86367 -14.96418,3.67254 -11.70276,8.82503 -33.21719,26.68064 -18.56819,27.32465 -8.93465,13.70343 -21.92554,0 -10.6887,1.05542 -10.2913,3.11057 -9.46909,5.07019 -8.3043,6.82445 -6.82432,8.30413 -5.07028,9.46899 -3.11069,10.2916 -1.05517,10.68839 1.05517,10.68878 3.11069,10.29159 5.07028,9.46899 6.82432,8.30413 5.61842,9.15419 6.7284,9.13987 12.71681,10.15431 49.31876,28.72256 54.81384,0 0,-13.70343 -54.81384,0 -19.84262,-13.70344 -16.73192,-11.22325 -4.39881,-3.00112 5.34435,0.52094 43.85107,0 10.6887,-1.05542 10.2913,-3.11057 9.46909,-5.07019 8.3043,-6.82445 6.82432,-8.30413 5.07028,-9.46899 3.11069,-10.29159 1.05517,-10.68878 -1.05517,-10.68839 -3.11069,-10.2916 -5.07028,-9.46899 -6.82432,-8.30413 -8.3043,-6.82445 -9.46909,-5.07019 -10.2913,-3.11057 -5.34435,-0.53448 -10.60648,-0.52094 8.38652,-13.70343 11.18203,-17.5403 42.60406,-36.5061 37.76674,-9.57871 46.24918,14.01863 42.61776,22.78885 37.35563,30.6545 30.65464,37.35581 22.78886,42.61782 14.01864,46.2354 4.7414,48.09912 -4.7414,48.08558 -14.01864,46.24895 -22.78886,42.61782 -30.65464,37.35581 -37.35563,30.65434 -42.61776,22.78916 -46.24918,14.01863 -48.08545,4.74146 -48.09915,-4.74146 -46.23548,-14.01863 -42.61776,-22.78916 -37.35563,-30.65434 -30.65464,-37.35581 -22.78886,-42.61782 -14.01864,-46.24895 -4.7414,-48.08558 z m 456.95561,137.22655 13.25124,-43.68678 4.48104,-45.44065 -4.48104,-45.44065 -13.25124,-43.68678 -21.52814,-40.27416 -28.96911,-35.28674 -35.28642,-28.96892 -40.27447,-21.52819 -43.68663,-13.25122 -24.81697,-2.64477 -47.20843,40.72657 -7.83837,12.86769 6.67358,0.65785 12.85385,3.90532 11.85349,6.33097 10.38723,8.50987 8.50984,10.38712 6.331,11.85365 3.90549,12.85376 1.31553,13.36078 -1.31553,13.36116 -3.90549,12.85377 -6.331,11.85364 -8.50984,10.38712 -10.38723,8.50987 -11.85349,6.33097 -12.85385,3.90533 -13.36087,1.31569 54.81384,0 0,41.1103 -68.5173,0 -67.32511,-46.33132 -11.85349,-6.33097 -10.38722,-8.50987 -8.50985,-10.38712 -6.331,-11.85364 -3.90549,-12.85377 -1.31553,-13.36116 1.31553,-13.36078 3.90549,-12.85376 6.331,-11.85365 8.50985,-10.38712 10.38722,-8.50987 11.85349,-6.33097 12.85385,-3.90532 13.36087,-1.3157 27.40693,0 23.06292,-32.43606 25.04993,-20.32222 -25.03623,2.46664 -43.68663,13.25122 -40.27447,21.52819 -35.28642,28.96892 -28.96911,35.28674 -21.52814,40.27416 -13.25124,43.68678 -4.48104,45.44065 4.48104,45.44065 13.25124,43.68678 21.52814,40.27455 28.96911,35.28635 35.28642,28.96892 40.27447,21.52839 43.68663,13.25094 45.44068,4.48118 45.44068,-4.48118 43.68663,-13.25094 40.27447,-21.52839 35.28642,-28.96892 28.96911,-35.28635 z m -475.34566,-89.12743 5.00177,50.75759 14.79974,48.79796 24.04957,44.97501 32.35387,39.42488 39.42486,32.35368 44.97476,24.04956 48.79802,14.79985 50.75762,5.00174 50.75762,-5.00174 48.79802,-14.79985 21.30889,-11.38762 23.66587,-12.66194 18.67782,-15.3204 20.74704,-17.03328 32.35387,-39.42488 24.04957,-44.97501 14.79974,-48.79796 5.00177,-50.75759 -5.00177,-50.75758 -14.79974,-48.79796 -24.04957,-44.97502 -32.35387,-39.42487 -39.42486,-32.35369 -44.97476,-24.04956 -48.79802,-14.79973 -50.75762,-5.00177 -50.75762,5.00177 -48.79802,14.79973 -44.97476,24.04956 -39.42486,32.35369 -15.33417,18.66417 -17.0197,20.7607 -11.38758,21.29519 -12.66199,23.67983 -14.79974,48.79796 z m 115.39685,231.91726 -0.36999,-0.20516 -7.1258,-3.83707 -32.32647,-26.5162 -9.19502,-7.55075 -30.06539,-30.06533 -105.585168,-105.58524 1.384052,-1.38415 26.228421,-26.22847 1.452569,-1.4526 7.68764,7.67413 27.009516,27.03675 -0.65776,-2.16498 -0.12333,-0.39757 -2.357,-7.76965 -4.097332,-41.63124 -1.178496,-11.85326 -2e-6,-42.52191 -0.01362,-149.34047 41.11031,0 0.0275,10.83961 -0.0137,38.24608 1.05506,-1.95923 0.19185,-0.37069 3.85067,-7.13907 26.48879,-32.34015 7.5369,-9.19479 30.0654,-30.06557 105.55775,-105.598851 1.38405,1.384035 26.22843,26.228425 1.45257,1.452565 -7.64654,7.687621 -27.03693,27.023255 2.15145,-0.64408 0.4111,-0.12335 7.81098,-2.35698 41.63111,-4.11103 11.85349,-1.16479 42.50814,-1e-6 149.34032,-0.01458 0,41.111271 -10.88055,0 -38.19155,0.0146 2.01441,1.08167 0.36999,0.20546 7.08469,3.80965 32.35388,26.54347 9.20872,7.55075 30.06539,30.06533 105.62628,105.6127 -1.38405,1.38415 -26.24213,26.22808 -1.45256,1.4526 -7.70135,-7.70119 -27.06433,-27.18759 0.64406,2.19244 0.12333,0.39758 2.3707,7.86556 5.26213,53.47096 0,191.84846 -41.11039,0 -0.0548,-48.94879 -1.26073,2.34327 -0.0548,0.10906 -3.69994,6.90721 -26.54361,32.35369 -7.56431,9.20872 -30.06539,30.06572 -105.59887,105.62625 -1.46627,-1.45258 -26.22843,-26.24239 -1.38405,-1.38376 7.66024,-7.67413 26.89989,-26.99576 -2.12403,0.63039 -0.3974,0.12356 -7.60543,2.28817 -41.6174,4.11107 -11.8398,1.1784 -42.50813,0 -149.32662,0.0331 0,-41.11592 10.82574,-0.0331 38.17784,-0.0275 z"
       inkscape:connector-curvature="0"
       sodipodi:nodetypes="cccccccccccccccccccccccccccccccccccccccccccccccccccccccccccccccccccccccccccccccccccccccccccccccccccccccccccccccccccccccccccccccccccccccccccccccccccccccccccccccccccccccccccccccccccccccccccccccccccccccccccccccccccccccccccccccccccccccccccccccccccccccccccccccccccccccccccccccccccccccccccccccccccccccccccccccccccccccccccccccccccccccccccccccccccccccccccccccccccccc" />
  </g>
</svg>
